<?xml version="1.0" encoding="utf-8"?>
<!-- Generator: Adobe Illustrator 26.2.1, SVG Export Plug-In . SVG Version: 6.00 Build 0)  -->
<svg version="1.1" xmlns="http://www.w3.org/2000/svg" xmlns:xlink="http://www.w3.org/1999/xlink" x="0px" y="0px"
	viewBox="0 0 544.3 114.6" style="enable-background:new 0 0 544.3 114.6;" xml:space="preserve">
	<style type="text/css">
		.st0 {
			fill: #FFFFFF;
		}
	</style>
	<g>
		<path d="M141.7,111.5c0,1.7-1.3,3-3,3h-0.1h-6.5l0,0l0,0l-0.1-9.5h6c1.4,0,2.6,1.2,2.6,2.6c0,0.5-0.1,1-0.4,1.4
		C141.2,109.5,141.7,110.5,141.7,111.5z M133.9,108.4h4.3c0.5,0,0.9-0.4,0.9-0.9l0,0c0-0.5-0.4-0.9-0.9-0.9h-4.3V108.4z
		 M140.1,111.5c0-0.7-0.6-1.4-1.4-1.4H134l0.1,2.7h4.8C139.5,112.8,140.1,112.2,140.1,111.5L140.1,111.5L140.1,111.5z M167.6,105
		L167.6,105l-3.6,4.8l0,0l-0.2,0.2l0.1,4.5h-1.7l-0.1-4.4l-0.2-0.3l0,0l-3.8-4.8h2.2l2.7,3.4l2.6-3.4H167.6L167.6,105z M158.2,114.5
		L158.2,114.5L158.2,114.5L158.2,114.5z M167.8,114.5L167.8,114.5L167.8,114.5L167.8,114.5z M217.5,112.4L217.5,112.4l-0.6,2l0,0
		l0,0l-1.3-1.7l0,0l-1.9-2.6l-1.9,2.6l-1.2,1.7l0,0l0,0l-0.6-2l-2.3-7.5h1.8l1.8,5.7l0,0l0,0l1.4-2l0.2-0.4l0.7-1.1l0.8,1.1l0.3,0.4
		l1.5,2l1.6-5.7h1.8L217.5,112.4z M238.1,107.6v0.9h6.1v1.7h-6.1v1.8c0,0.5,0.4,0.9,0.9,0.9h6.9v1.7h-6.8c-1.4,0-2.6-1.2-2.6-2.6
		l-0.1-4.4c0-1.4,1.1-2.5,2.5-2.6h0.1h6.9v1.7H239C238.6,106.7,238.1,107.1,238.1,107.6L238.1,107.6L238.1,107.6z M272.9,111.5
		c0,1.7-1.3,3-3,3h-0.1h-6.5l0,0l0,0l-0.1-9.5h6c1.4,0,2.6,1.2,2.6,2.6c0,0.5-0.1,1-0.4,1.4C272.4,109.5,272.9,110.5,272.9,111.5z
		 M265.1,108.4h4.3c0.5,0,0.9-0.4,0.9-0.9l0,0c0-0.5-0.4-0.9-0.9-0.9h-4.3V108.4z M271.3,111.5c0-0.7-0.6-1.4-1.4-1.4h-4.8l0.1,2.7
		h4.8C270.7,112.8,271.3,112.2,271.3,111.5L271.3,111.5L271.3,111.5z M298.7,109.8c0.5,0.5,0.8,1.2,0.8,2c0,1.5-1.2,2.8-2.7,2.8
		h-0.1H290v-1.7h6.7c0.6,0,1.1-0.5,1.1-1.1l0,0c0-0.6-0.5-1.1-1.1-1.1h-0.1h-5.1v-1.7h5h0.1c0.6,0,1.1-0.5,1.1-1.1
		c0-0.6-0.5-1.1-1.1-1.1h-6.7V105h6.7c1.5,0,2.8,1.2,2.8,2.8C299.5,108.6,299.2,109.2,298.7,109.8L298.7,109.8z M318.6,109.7
		c0,1.7,1.4,3,3.1,3.1h3.1V111h-3.1v-1.7h4.8l0.1,5.2h-4.8c-2.7,0-4.8-2.1-4.8-4.8c-0.1-2.6,2-4.7,4.6-4.8h0.1h4.8v1.7h-4.8
		C320,106.7,318.6,108.1,318.6,109.7L318.6,109.7L318.6,109.7z M353,114.5h-1.9l-0.9-1.7l-2.1-4.1l-2,4.1l-0.9,1.7h-1.9l0.9-1.7
		l3.9-7.8l4.1,7.8L353,114.5z M379.3,105l0.1,9.5h-1.7l-0.1-6.1l-1.7,1.3l-1.4,1.1l-1.4-1.1l-1.7-1.3l0.1,6.1h-1.7l-0.1-9.5l1.7,1.3
		l3.1,2.3l3-2.3L379.3,105z M398.4,107.6v0.9h6.1v1.7h-6.1v1.8c0,0.5,0.4,0.9,0.9,0.9h6.9v1.7h-6.9c-1.4,0-2.6-1.2-2.6-2.6l-0.1-4.4
		c0-1.4,1.1-2.5,2.5-2.6h0.1h6.9v1.7h-6.9C398.8,106.7,398.4,107.1,398.4,107.6L398.4,107.6L398.4,107.6z M430.9,107.6L430.9,107.6
		c0-0.6-0.4-0.9-0.9-0.9h-3.8c-0.5,0-0.9,0.4-0.9,0.9l0,0v0.1c0,0.5,0.4,0.9,0.9,0.9h3.4c0.9,0,1.7,0.4,2.2,1
		c0.1,0.1,0.1,0.1,0.1,0.1c0.4,0.6,0.7,1.2,0.7,1.9c0,1.6-1.3,3-2.9,3h-0.1h-3c-1.7,0-3-1.4-3-3h1.7c0,0.7,0.6,1.3,1.3,1.3h3
		c0.7,0,1.3-0.6,1.3-1.3l0,0c0-0.7-0.6-1.3-1.4-1.3h-3.4c-0.7,0-1.3-0.2-1.8-0.7c-0.1-0.1-0.2-0.2-0.3-0.4c-0.3-0.4-0.5-0.9-0.5-1.5
		v-0.1c0-1.4,1.1-2.5,2.5-2.6h0.1h3.8c1.4,0,2.6,1.2,2.6,2.6v0.1H430.9z M450.1,114.6v-1.7h1.7v1.7H450.1z M470.7,109.7
		c0,1.7,1.4,3,3.1,3.1h4.8v1.7h-4.8c-2.7,0-4.8-2.1-4.8-4.8c-0.1-2.6,2-4.7,4.6-4.8h0.1h4.8v1.7h-4.8
		C472,106.7,470.7,108.1,470.7,109.7L470.7,109.7L470.7,109.7z M504.5,109.7c0.1,2.6-2,4.7-4.6,4.8h-0.1c-2.7,0-4.8-2.1-4.8-4.8
		c-0.1-2.6,2-4.7,4.6-4.8h0.1C502.3,105,504.4,107.1,504.5,109.7L504.5,109.7z M502.8,109.7c0-1.7-1.4-3-3.1-3.1c-1.7,0-3,1.4-3,3
		v0.1c0,1.7,1.4,3,3.1,3.1C501.5,112.8,502.8,111.5,502.8,109.7C502.8,109.8,502.8,109.8,502.8,109.7L502.8,109.7z M531,105l0.1,9.5
		h-1.7l-0.1-6.1l-1.7,1.3l-1.4,1.1l-1.4-1.1l-1.7-1.3l0.1,6.1h-1.7l-0.1-9.5l1.7,1.3l3.1,2.3l3-2.3L531,105z" />
		<path d="M409.7,45l0.2-18.7l-5-2.2L404.5,45h-18.2l0.4-26.2h-5L381.4,45h-74.1l0.2-16.7L290.1,45h-38.7l0.2-10.1L241.2,45h-76.6
		l-9.9-4.1v-0.1l-22.9-9.6L132,0.9h18.2l-0.1,18.6l5,2.2l0.4-20.8h18.2L173.2,27h4.9l0.1-26.1l18.2-0.1l-0.1,12.8l13.3-12.8h98.9
		L308.3,14h0.1l-0.1,2l35-15.1h20.6l31.5-0.1l32.7,13.7l0.2-13.7h56.5l0,0h56.2l-0.2,13.3l0,0l-13.2,13.5h13l-0.2,17.5L409.7,45z
		 M196.1,39.7l11.1-10.7l0.1-10.1h-11.1L196.1,39.7z M484.3,26.9l-0.1,2.7l11.1-10.9h-10.9h-11.7l-0.1,8.1L484.3,26.9z M345.8,26.9
		l0.1-7.7l-17.8,7.7H345.8z M269.9,22.5l3.8-3.7H270L269.9,22.5z" />
		<path d="M336.5,94.4l-9.8-4.1v-0.1l-22.9-9.6l0.5-30.7h18.2l-0.2,19l4.9,2.2l0.6-21.1h18.2l-0.7,26.4h4.9l0.4-26.4l18.2-0.1
		L368,94.5L336.5,94.4z M461.4,94.4l-11.5-11.6H444l-0.1,11.5h-18.2l0.3-26.1H426l0.2-18h56.3l-0.2,20.7l-9.4,9.3l9.8,9.8l0.2-22.9
		l0.1-16.9h18.2l-0.1,10.3l10.5-10.3l32.6,0l-18.9,18.6h-6.9l-1.6,1.6l6.1,6h16.2l-0.2,18h-18l-5.3,0.1l-13.1-13H501l-0.1,13
		L461.4,94.4z M368.5,94.3l0.4-44.3h56.5l-0.4,44.3H368.5z M406.9,76.2l0.1-8.2h-20.1l-0.1,8.2H406.9z M265.5,94.3l0.2-26.2h-19.1
		l0.2-18.1h56.6l-0.2,18.1H284l-0.2,26.2L265.5,94.3L265.5,94.3z M189,94.3l0.4-44.3h56.5l-0.2,18.1h-11.7l-0.1,8.2h11.7l-0.2,18.1
		L189,94.3L189,94.3L189,94.3z M170.1,94.3l0.2-18.5l-17.7-7.7h-2.3l-0.2,26.2H132l0.2-26.2l0.2-18h24.2l13.9,6.1l0,0l18.1,7.9
		l-0.3,30.3L170.1,94.3z" />
		<path class="st0" d="M487.4,89.7l0.2-22.8l0.1-12.2h8.8L496.4,68h3.7l13.3-13.1h12.4l-9.1,8.9l-0.2,0.1l-6.4,6.3l6.5,6.5l-20.5-0.1
		l-0.1,13.1H487.4z M337.5,89.7l-6-2.5l0.8-32.2h8.8l-0.7,26.1h14.3L355,55l8.8-0.1l-0.5,34.8H337.5z M193.7,89.7l0.2-21.9h8.8
		L202.7,81h38.2l-0.1,8.7H193.7z M174.9,89.7l0.3-26.3l8.7,3.8l-0.2,22.5H174.9z M463.3,89.6l-11.5-11.5h-12.4l-0.1,11.5h-8.8
		l0.2-20.1h24.9l20.1,20.1H463.3z M270.3,89.6l0.2-21.9h8.8l-0.2,21.9H270.3z M136.7,89.6l0.2-21.8h8.8l-0.2,21.8H136.7z M508.8,81
		h25.6l-0.1,8.6h-13.4l-3.5,0.1L508.8,81z M373.2,89.6l0.1-8.6h38.2l0.1-13.2h8.8l-0.2,21.9H373.2z M308.5,77.6l0.3-22.6h8.8
		l-0.2,17l10,4.5l-0.3,9L308.5,77.6z M461.8,69.5h2.7l6.3-6.2l-40,0.1l0.1-8.6h46.9l-0.1,14l-8.3,8.2L461.8,69.5z M373.3,76.6
		l0.2-21.9h47.1l-0.1,8.7h-38.2l-0.1,13.2L373.3,76.6z M207,76.1l0.1-8.3h22.2l-0.1,8.3H207z M153.7,63.4H137l0.1-8.6h18.5l15.2,6.6
		l-0.1,9.4L153.7,63.4z M522,63.9l9.3-9.1h1.9l-9.3,9.1H522z M251.4,63.4l0.1-8.7h47.2l-0.1,8.7H251.4z M194.1,63.4l0.1-8.7h47.1
		l-0.1,8.7H194.1z" />
		<path class="st0" d="M391,40.5l0.4-26.2h-14.5l-0.3,26.2h-8.8l0.5-34.9h25.9l6,2.6l-0.5,32.4H391z M488.5,40.4l0.1-8.4l13.5-13.2
		h23.4l-8.9,8.6h-11.1l-4.4,4.4h34.4l-0.2,8.6H488.5z M432.2,40.4l0.3-21.9h8.8l-0.2,13.2h38.2l-0.2,8.6H432.2z M414.3,40.4l0.2-17
		l-10-4.4l0.2-9.1l18.8,7.9l-0.4,22.7H414.3z M350.3,40.4l0.3-26.1h-4.7L321.1,25v2.8h-8.8l0.1-8.5l31.8-13.7h15.4l0,3.7l-0.1,5.9
		L359,40.4H350.3z M312.1,40.4l0.2-8.6H346l-0.2,8.6H312.1z M275.9,40.4l13.5-13.1h-17.5l8.7-8.6h22.8l-0.2,7.4l-14.9,14.3H275.9z
		 M202.1,40.4l8.9-8.6h24.8l4.6-4.5h-28.6l0.2-8.7h35.3v0.2l-6,5.8h5.9l-0.1,8.3l-7.8,7.6H202.1z M165.5,40.4l-6-2.5l0.5-32.2h8.8
		l-0.4,26.1h14.3l0.1-26.1l8.8-0.1l-0.1,34.8H165.5z M256.1,40.3l0.4-22h8.7L265,31.7h13.5l-8.9,8.6H256.1z M136.4,28.2l0.1-22.5
		h8.8l-0.1,17l10,4.4l-0.2,9L136.4,28.2z M521.2,27.4l8.9-8.7l0.7,0l-8.7,8.7L521.2,27.4z M445.6,27l0.2-8.5h22.2l-0.2,8.5H445.6z
		 M256.6,14.3l0.2-8.6h46.9l-0.2,8.6H256.6z M202.5,14.1l8.8-8.5h36.1l-0.2,8.6L202.5,14.1z M488.9,14.1l0.2-8.6l46.9-0.1l-0.1,8.2
		l-0.5,0.5H488.9z M432.6,14.1l0.2-8.6h47.1l-0.2,8.6H432.6z" />
		<path d="M35.7,76.6H16.3L0,48.8l16.2-28.6l0,0L27.7,0h62.7L76.9,22.1h47.3l-14.9,26H92.8l9.1,15.7L83.7,95.6H24.8L35.7,76.6z
		 M70,72l13.8-23.9H58.1L71,25.5H43.2L29.7,48.7l13.4,23.2L70,72L70,72z" />
		<g>
			<polygon class="st0" points="33.7,90.5 41.3,77.1 73,77.1 88.3,50.4 96.1,63.7 80.8,90.5 		" />
			<polygon class="st0" points="105,43 114,27.1 115.5,27.1 106.4,43 		" />
			<polygon class="st0" points="66.8,43 75.9,27.1 110.1,27.1 101.1,43 		" />
			<polygon class="st0" points="21.9,20.4 30.7,5.1 81.3,5.1 72,20.4 		" />
			<polygon class="st0" points="19.2,71.5 5.9,48.7 19.2,25.3 37.4,25.3 23.9,48.7 37.1,71.5 		" />
		</g>
	</g>
</svg>