<svg xmlns="http://www.w3.org/2000/svg" width="213.17418" height="40.44885" viewBox="0 0 213.17418 40.44885">
  <g>
    <g>
      <path
        d="M57.77418,39.14885a1.15536,1.15536,0,0,1-1.2,1.2h-2.6v-3.8h2.4a1.00209,1.00209,0,0,1,1,1,1.42132,1.42132,0,0,1-.2.6A1.52378,1.52378,0,0,1,57.77418,39.14885Zm-3.2-1.2h1.7a.3193.3193,0,0,0,.3-.3h0c0-.2-.2-.3-.4-.3h-1.7Zm2.5,1.2a.47239.47239,0,0,0-.5-.5h-1.9v1.1h1.9a.56.56,0,0,0,.5-.6Z" />
      <path
        d="M67.97418,36.64885h0l-1.4,1.9h0l-.1.1v1.8h-.7v-1.8l-.1-.1h0l-1.5-1.9h.8l1.1,1.3,1-1.3Zm-3.7,3.7Zm3.8,0Z" />
      <path
        d="M87.77418,39.54885h0l-.2.8h0l-.5-.7h0l-.8-1-.7,1-.5.7h0l-.3-.8-.9-3h.7l.7,2.3h0l.6-.8.1-.2.3-.4.3.4.1.2.6.8.6-2.3h.8Z" />
      <path
        d="M95.97418,37.64885v.3h2.4v.7h-2.4v.7a.3193.3193,0,0,0,.3.3h2.8v.7h-2.8a1.00209,1.00209,0,0,1-1-1v-1.7a.94477.94477,0,0,1,1-1h2.8v.7h-2.8c-.1-.1-.3.1-.3.3Z" />
      <path
        d="M109.77418,39.14885a1.15536,1.15536,0,0,1-1.2,1.2h-2.6v-3.8h2.4a1.00209,1.00209,0,0,1,1,1,1.4213,1.4213,0,0,1-.2.6A1.21724,1.21724,0,0,1,109.77418,39.14885Zm-3.1-1.2h1.7a.31931.31931,0,0,0,.3-.3h0c0-.2-.2-.3-.4-.3h-1.6Zm2.5,1.2a.47239.47239,0,0,0-.5-.5h-2v1.1h1.9a.64523.64523,0,0,0,.6-.6Z" />
      <path
        d="M120.07418,38.54885a1.1355,1.1355,0,0,1,.3.8,1.10976,1.10976,0,0,1-1.1,1.1h-2.7v-.7h2.7a.43017.43017,0,0,0,.4-.4h0a.43016.43016,0,0,0-.4-.4h-2v-.7h2a.4.4,0,0,0,0-.8h-2.7v-.7h2.7a1.10976,1.10976,0,0,1,1.1,1.1A1.08025,1.08025,0,0,1,120.07418,38.54885Z" />
      <path
        d="M127.97418,38.54885a1.216,1.216,0,0,0,1.2,1.2h1.2v-.7h-1.2v-.7h1.9v2.1h-1.9a1.90136,1.90136,0,0,1-.1-3.8h1.9v.7h-1.9c-.6-.1-1.1.5-1.1,1.2Z" />
      <path d="M141.57417,40.34885h-.8l-.4-.7-.8-1.6-.8,1.6-.3.7h-.8l.3-.7,1.5-3.1,1.6,3.1Z" />
      <path d="M151.97418,36.64885v3.8h-.7v-2.4l-.7.5-.5.4-.6-.4-.7-.5v2.4h-.7v-3.8l.7.5,1.2.9,1.2-.9Z" />
      <path
        d="M159.57417,37.64885v.3h2.4v.7h-2.4v.7c0,.2.2.3.4.3h2.8v.7h-2.8a1.00208,1.00208,0,0,1-1-1v-1.7a.94477.94477,0,0,1,1-1h2.8v.7h-2.8c-.2-.1-.4.1-.4.3Z" />
      <path
        d="M172.47418,37.64885h0a.43015.43015,0,0,0-.4-.4h-1.4a.3193.3193,0,0,0-.3.3h0c0,.2.2.3.4.3h1.4a1.08574,1.08574,0,0,1,.9.4v.1a1.13552,1.13552,0,0,1,.3.8,1.216,1.216,0,0,1-1.2,1.2h-1.2a1.15536,1.15536,0,0,1-1.2-1.2h.7a.47238.47238,0,0,0,.5.5h1.2a.47238.47238,0,0,0,.5-.5h0a.47238.47238,0,0,0-.5-.5h-1.5a.9078.9078,0,0,1-.7-.3c-.1,0-.1-.1-.1-.2a1.42118,1.42118,0,0,1-.2-.6h0a.94477.94477,0,0,1,1-1h1.5a1.00208,1.00208,0,0,1,1,1h0Z" />
      <path d="M180.17418,40.44885v-.7h.7v.7Z" />
      <path
        d="M188.27419,38.54885a1.216,1.216,0,0,0,1.2,1.2h1.9v.7h-1.9a1.90135,1.90135,0,0,1-.1-3.8h1.9v.7h-1.9c-.5-.1-1.1.5-1.1,1.2Z" />
      <path
        d="M201.67418,38.54885a1.88008,1.88008,0,0,1-1.8,1.9h0a1.90135,1.90135,0,0,1-.1-3.8h0A1.83874,1.83874,0,0,1,201.67418,38.54885Zm-.6,0a1.216,1.216,0,0,0-1.2-1.2,1.15536,1.15536,0,0,0-1.2,1.2h0a1.216,1.216,0,0,0,1.2,1.2,1.29046,1.29046,0,0,0,1.2-1.2Z" />
      <path d="M212.27419,36.64885v3.8h-.7v-2.4l-.7.5-.5.4-.6-.4-.7-.5v2.4h-.7v-3.8l.7.5,1.2.9,1.2-.9Z" />
    </g>
    <polygon
      points="34.287 18.285 27.775 29.603 14.765 29.603 11.221 35.806 31.375 35.803 37.862 24.464 34.287 18.285" />
    <polygon points="44.823 9.078 46.044 9.078 41.923 16.278 40.723 16.278 44.823 9.078" />
    <polygon points="43.841 9.078 28.978 9.078 24.878 16.278 39.723 16.278 43.841 9.078" />
    <polygon points="10.386 0 6.411 7 27.773 7 32.036 0 10.386 0" />
    <polygon points="13.972 8.303 5.67 8.303 0 18.303 5.685 28.003 13.8 28.003 8.2 18.303 13.972 8.303" />
    <path
      d="M68.97418,34.24885l.1-11.4,4.2,1.8-.1,9.5Zm-15.1,0,.1-9.4h4.2l-.1,9.4Zm7-10.4h-6.9v-4.2h7.8l6.3,2.8v4.5Zm15.6,10.4.1-9.4h4.2v5.2h15.2v4.2Zm5.3-5.4v-4h9.6v4Zm-5.2-5v-4.2h19.4v4.2Zm30.3,10.4.1-9.4h4.2l-.1,9.4Zm-7.5-10.4v-4.2h19.5v4.2Zm48.4,10.4v-4.2h15.2l.1-5.2h4.2l-.1,9.4Zm.1-5.2.1-9.4h19.4v4.2h-15.2l-.1,5.2Zm35.9,5.2-4.6-4.6h-4.4v4.6h-4.2l.1-8.7h10.4l8.7,8.7Zm-1.3-8.7h1.8l1.8-1.7h-15.4v-4.2h19.4l-.1,6.1-3.7,3.6Zm22.9-1.6h0l4.3-4.2h-6l-5.3,5.2h-1v-5.2h-4.2v5.2h0l-.1,9.4h4.2l.1-5.2h8.7l-3-3Zm-.1,10.3h7.2v-4.1h-11.4Zm7.3-14.6-4.5,4.4h-1.8l4.5-4.4Zm-86.2,6.9.1-6.9h-4.2l-.2,9.6,8.1,3.4.1-4.3Zm14.2-6.8-.1,10.4h-4.9l.3-10.4h-4.2l-.3,13.4,2.7,1.1h10.7l.2-14.5Zm-82.6-12.8v-6.9h-4.2v9.6l8.1,3.4.1-4.3Zm14.2-6.8-.1,10.4h-4.9l.2-10.4h-4.2l-.2,13.4,2.7,1.1h10.7v-14.5Zm11.5,9.3h10.8l-1.1,1.1h-9.9l-4.3,4.2h15.8l3.3-3.2.1-3.8h-1.7l1.8-1.8v-.6h-14.7Zm.1-9.3-4.3,4.1h19.1l.1-4.2Zm84.7,4.9-8.2-3.4-.1,4.4,4,1.8-.1,6.9h4.2Zm-11.9-5h-10.7l-.2,14.6h4.2l.1-10.4h5l-.2,10.4h4.2l.2-13.5Zm14.7,14.6.1-9.4h4.2l-.1,5.2h15.2l-.1,4.2Zm5.3-5.3.1-4.1h9.6l-.1,4.1Zm-5.2-5.1.1-4.2h19.4l-.1,4.2Zm29.5,5.2h4.4l4.3-4.2h-10.3l-5.6,5.5-.1,3.9h19.4l.1-4.2h-13.1Zm-7.1-9.4-.1,4.2h19l.4-.4.1-3.8Zm12.5,9.4h1.1l4.3-4.2h-1.1Zm-99.3,0h6.9l-5.3,5.2h6l6.1-5.9.1-3.5h-9.6Zm-5.4-9.3-.1,4.2h19.4l.1-4.2Zm4.1,5h-4.2l-.2,9.5h5.9l4.3-4.2h-5.9Zm17.9,5.3h0l-.1,4.2h14.2l.1-4.2Zm19.5-10.3h-6.6l-12.8,5.5v4h4.2v-1.2l9.5-4.1h1.4l-.1,10.3h4.2l.2-10.4h0v-2.3h0Z" />
  </g>
</svg>