<?xml version="1.0" encoding="utf-8"?>
<!-- Generator: Adobe Illustrator 26.2.1, SVG Export Plug-In . SVG Version: 6.00 Build 0)  -->
<svg version="1.1" id="图层_1" xmlns="http://www.w3.org/2000/svg" xmlns:xlink="http://www.w3.org/1999/xlink" x="0px" y="0px"
	 viewBox="0 0 892.5 184.5" style="enable-background:new 0 0 892.5 184.5;" xml:space="preserve">
<style type="text/css">
	.st0{fill:#FFFFFF;}
	.st1{fill:url(#SVGID_1_);}
	.st2{fill:url(#SVGID_00000025416237091115376950000013970317405198182331_);}
	.st3{fill:url(#SVGID_00000034064445992088011030000000532608693369279919_);}
	.st4{fill:url(#SVGID_00000019679542708399288040000012193658984349075131_);}
	.st5{fill:url(#SVGID_00000030480618625519204590000005134469978834815921_);}
	.st6{opacity:0.6;}
	.st7{fill:url(#SVGID_00000155855827378833538420000008130947661076305843_);}
	.st8{fill:url(#SVGID_00000086679911694179892190000005808976782953056658_);}
	.st9{fill:url(#SVGID_00000159457211657615589680000009240477292780675768_);}
	.st10{fill:url(#SVGID_00000134932842713589140350000015330341351454313137_);}
	.st11{fill:url(#SVGID_00000111885731938426841980000010593582171515418016_);}
</style>
<g>
	<path class="st0" d="M246.1,179.4c0,2.7-2.1,4.9-4.8,4.9h-0.1h-10.5l0,0l0,0l-0.2-15.4h9.7c2.3,0,4.2,1.9,4.2,4.2
		c0,0.8-0.2,1.6-0.6,2.2C245.3,176.2,246.1,177.8,246.1,179.4z M233.4,174.5h7c0.8,0,1.4-0.6,1.4-1.4l0,0c0-0.8-0.6-1.4-1.4-1.4h-7
		V174.5z M243.4,179.4c0-1.2-1-2.2-2.2-2.2h-7.7l0.1,4.3h7.7C242.4,181.6,243.4,180.6,243.4,179.4L243.4,179.4L243.4,179.4z
		 M288,168.9L288,168.9l-5.9,7.7l0,0l-0.3,0.4l0.1,7.3h-2.8l-0.1-7.2l-0.4-0.5l0,0l-6.1-7.7h3.5l4.3,5.5l4.2-5.5L288,168.9
		L288,168.9z M272.8,184.3L272.8,184.3L272.8,184.3L272.8,184.3z M288.2,184.3L288.2,184.3L288.2,184.3L288.2,184.3z M368.7,181
		L368.7,181l-0.9,3.3l0,0l0,0l-2.1-2.8l0,0l-3.1-4.2l-3,4.2l-2,2.8l0,0l0,0l-1-3.3l-3.7-12.1h2.9l2.9,9.3l0,0l0,0l2.3-3.2l0.4-0.6
		l1.2-1.7l1.3,1.7l0.5,0.6l2.4,3.2l2.6-9.3h2.9L368.7,181z M402.1,173.1v1.4h9.9v2.7h-9.9v2.9c0,0.8,0.6,1.4,1.4,1.4h11.2v2.7h-11
		c-2.3,0-4.2-1.9-4.2-4.2l-0.1-7.1c0-2.3,1.8-4.1,4-4.2h0.1h11.2v2.7h-11.2C402.8,171.7,402.1,172.3,402.1,173.1L402.1,173.1
		L402.1,173.1z M458.4,179.4c0,2.7-2.1,4.9-4.8,4.9h-0.1H443l0,0l0,0l-0.2-15.4h9.7c2.3,0,4.2,1.9,4.2,4.2c0,0.8-0.2,1.6-0.6,2.2
		C457.6,176.2,458.4,177.8,458.4,179.4z M445.7,174.5h7c0.8,0,1.4-0.6,1.4-1.4l0,0c0-0.8-0.6-1.4-1.4-1.4h-7V174.5z M455.7,179.4
		c0-1.2-1-2.2-2.2-2.2h-7.8l0.1,4.3h7.7C454.7,181.6,455.7,180.6,455.7,179.4L455.7,179.4L455.7,179.4z M500.1,176.7
		c0.8,0.8,1.3,2,1.3,3.2c0,2.5-1.9,4.5-4.4,4.5h-0.1H486v-2.7h10.9c1,0,1.8-0.8,1.8-1.8l0,0c0-1-0.8-1.7-1.7-1.8h-0.1h-8.2v-2.8h8.1
		h0.1c1,0,1.7-0.8,1.7-1.8s-0.8-1.8-1.8-1.8h-10.9V169h10.8c2.5,0,4.6,2,4.6,4.5C501.4,174.7,500.9,175.8,500.1,176.7L500.1,176.7z
		 M532.3,176.6c0,2.7,2.3,4.9,5,5h5v-2.9h-5V176h7.7l0.1,8.4h-7.7c-4.3,0-7.7-3.4-7.8-7.7c-0.1-4.2,3.3-7.6,7.5-7.7h0.1h7.7v2.7
		h-7.7C534.5,171.7,532.3,173.9,532.3,176.6L532.3,176.6L532.3,176.6z M588,184.3h-3.1l-1.4-2.8l-3.4-6.6l-3.3,6.6l-1.4,2.8h-3.1
		l1.4-2.8l6.3-12.6l6.6,12.6L588,184.3z M630.5,168.9l0.2,15.4h-2.8l-0.1-9.8l-2.7,2.1l-2.2,1.7l-2.3-1.7l-2.7-2.1l0.1,9.8h-2.8
		l-0.2-15.4l2.8,2.1l5,3.8l4.9-3.8L630.5,168.9z M661.4,173.1v1.4h9.9v2.7h-9.9v2.9c0,0.8,0.6,1.4,1.4,1.4H674v2.7h-11.2
		c-2.3,0-4.2-1.9-4.2-4.2l-0.1-7.1c0-2.3,1.8-4.1,4-4.2h0.1h11.2v2.7h-11.2C662,171.7,661.4,172.3,661.4,173.1L661.4,173.1
		L661.4,173.1z M714,173.2L714,173.2c0-0.9-0.7-1.5-1.4-1.5h-6.2c-0.8,0-1.4,0.6-1.4,1.4l0,0v0.1c0,0.8,0.6,1.4,1.4,1.4h5.5
		c1.4,0,2.7,0.6,3.6,1.6c0.1,0.1,0.1,0.1,0.2,0.2c0.7,0.9,1.1,1.9,1.1,3.1c0,2.6-2.1,4.8-4.7,4.9H712h-4.8c-2.7,0-4.9-2.2-4.9-4.9
		h2.7c0,1.2,1,2.1,2.1,2.1h4.8c1.2,0,2.1-0.9,2.1-2.1l0,0c0-1.2-1-2.1-2.2-2.1h-5.5c-1.1,0-2.1-0.4-2.9-1.2
		c-0.2-0.2-0.4-0.4-0.5-0.6c-0.5-0.7-0.8-1.5-0.8-2.4v-0.1c0-2.3,1.8-4.1,4-4.2h0.1h6.2c2.3,0,4.2,1.9,4.2,4.2v0.1H714z
		 M745.1,184.5v-2.7h2.7v2.7H745.1z M778.4,176.6c0,2.7,2.3,4.9,5,5h7.7v2.7h-7.7c-4.3,0-7.7-3.4-7.8-7.7c-0.1-4.2,3.3-7.6,7.5-7.7
		h0.1h7.7v2.7h-7.7C780.6,171.7,778.4,173.9,778.4,176.6L778.4,176.6L778.4,176.6z M833.1,176.6c0.1,4.2-3.3,7.6-7.5,7.7h-0.1
		c-4.3,0-7.7-3.4-7.8-7.7c-0.1-4.2,3.3-7.6,7.5-7.7h0.1C829.6,168.9,833,172.4,833.1,176.6L833.1,176.6z M830.3,176.6
		c0-2.7-2.3-4.9-5-5c-2.7,0-4.9,2.2-4.9,4.9v0.1c0,2.7,2.3,4.9,5,5C828.2,181.6,830.3,179.4,830.3,176.6
		C830.3,176.7,830.3,176.7,830.3,176.6L830.3,176.6z M876,168.9l0.2,15.4h-2.8l-0.1-9.8l-2.7,2.1l-2.2,1.7l-2.3-1.7l-2.7-2.1
		l0.1,9.8h-2.8l-0.2-15.4l2.8,2.1l5,3.8l4.9-3.8L876,168.9z"/>
	
		<linearGradient id="SVGID_1_" gradientUnits="userSpaceOnUse" x1="987.5175" y1="-1108.4078" x2="199.5689" y2="-1123.2747" gradientTransform="matrix(1 0 0 -1 0 -999.0383)">
		<stop  offset="6.838000e-02" style="stop-color:#A8FFFF"/>
		<stop  offset="0.5084" style="stop-color:#4C00FF"/>
		<stop  offset="0.5666" style="stop-color:#5600FE"/>
		<stop  offset="0.667" style="stop-color:#7200FC"/>
		<stop  offset="0.7976" style="stop-color:#A000F8"/>
		<stop  offset="0.9517" style="stop-color:#DE00F3"/>
		<stop  offset="1" style="stop-color:#F300F1"/>
	</linearGradient>
	<path class="st1" d="M555.2,153.5l-15.9-6.7v-0.1l-37-15.5l0.8-49.2h29.4l-0.4,30.2l8,3.6l0.9-33.7h29.4l-1.1,42.3h7.9l0.6-42.2
		l29.4-0.1l-0.9,71.5L555.2,153.5z M791.8,153.5v-0.2h-34.3l-18.7-18.6h-9.5l-0.2,18.6h-29.4l0.5-42.3h-0.1l0.3-29.2h91.2l-0.3,33.5
		l-15.3,15l15.9,15.9l0.4-37.1l0.2-27.3H822l-0.1,16.7L838.7,82h28.7l0.2-0.2h24.9l-30.6,30.1H850l-2.6,2.6l9.8,9.7h26.2l-0.3,29.1
		H854l-8.6,0.2l-21.2-21h-2.6l-0.2,21.1L791.8,153.5z M607,153.3l0.7-71.7h91.4l-0.7,71.7H607z M669.3,124l0.1-13.2h-32.5l-0.1,13.2
		H669.3z M440.3,153.3l0.4-42.4h-31l0.3-29.3h91.6l-0.3,29.3h-31.1l-0.4,42.4L440.3,153.3L440.3,153.3z M316.5,153.3l0.7-71.7h91.4
		l-0.3,29.3h-18.9l-0.1,13.2h18.9l-0.3,29.3L316.5,153.3L316.5,153.3L316.5,153.3z M285.9,153.3l0.3-29.9L257.6,111h-3.7l-0.4,42.4
		h-29.4l0.4-42.4l0.3-29.2H264l22.5,9.8l0,0l29.3,12.8l-0.5,49L285.9,153.3z"/>
	<path class="st0" d="M292.1,147.2l0.5-46.3l17.1,7.5l-0.4,38.9h-17.2V147.2z M230.3,147.2l0.4-38.3h17.2l-0.4,38.3H230.3z
		 M258.9,104.8h-28.2l0.2-17h31.8L288.5,99l-0.2,18.5L258.9,104.8z M322.6,147.2l0.4-38.4h17.3l-0.2,21.4H402l-0.2,17.1h-79.2
		L322.6,147.2L322.6,147.2z M344.1,125.3l0.2-16.4h39l-0.2,16.4H344.1z M323.1,104.7l0.2-17.1h79.2l-0.2,17.1H323.1z M446.5,147.2
		l0.4-38.4h17.3l-0.4,38.4H446.5z M415.9,104.8l0.2-17.1h79.4l-0.2,17.1H415.9z M613.2,147.2l0.2-17.1h61.9l0.2-21.4h17.2l-0.4,38.4
		h-79.1L613.2,147.2L613.2,147.2z M613.4,126.1l0.4-38.4H693l-0.2,17.1h-61.9l-0.2,21.4L613.4,126.1z M760,147.2l-18.7-18.6h-18
		l-0.2,18.6h-17.2l0.4-35.5h42.5l35.5,35.5H760z M754.5,111.7h7.4l7.1-7l-62.7,0.1l0.2-17h78.9l-0.2,24.8l-15,14.7L754.5,111.7z
		 M847.9,105.2l0.3-0.2l17.4-17h-24.4l-21.6,21.2h-3.9l0.1-21.4h-17.3l-0.1,21.2l0,0l-0.4,38.4h17.2l0.2-21.2l35.4,0.1l-12.1-12.1
		L847.9,105.2z M847.7,147.2l6.2-0.1H877l0.2-16.9h-46.6L847.7,147.2z M877.5,87.8l-18.1,17.8H852l18.1-17.8H877.5z M525.8,116.1
		l0.4-28H509l-0.6,39.1l33.1,13.9l0.5-17.7L525.8,116.1z M583.8,88.2l-0.6,42.2H563l1.1-42.3h-17.2l-1.4,54.7l11,4.6h43.8l0.8-59.3
		L583.8,88.2z"/>
	
		<linearGradient id="SVGID_00000137131354585761110770000007760969998541865141_" gradientUnits="userSpaceOnUse" x1="123.742" y1="-1039.0767" x2="1077.7048" y2="-1034.1211" gradientTransform="matrix(1 0 0 -1 0 -999.0383)">
		<stop  offset="1.340000e-03" style="stop-color:#B3FFFF"/>
		<stop  offset="0.5084" style="stop-color:#4C00FF"/>
		<stop  offset="0.5666" style="stop-color:#5600FE"/>
		<stop  offset="0.667" style="stop-color:#7200FC"/>
		<stop  offset="0.7976" style="stop-color:#A000F8"/>
		<stop  offset="0.9517" style="stop-color:#DE00F3"/>
		<stop  offset="1" style="stop-color:#F300F1"/>
	</linearGradient>
	<path style="fill:url(#SVGID_00000137131354585761110770000007760969998541865141_);" d="M673.7,73.5l0.3-30.3l-8.1-3.6l-0.5,33.9
		h-29.5l0.7-42.5h-8.1L628,73.5H508.1l0.4-27l-28.3,27h-62.7l0.3-16.4L401,73.5H276.9l-16-6.7v-0.1l-37-15.5L224.1,2h29.4l-0.1,30.1
		l8.1,3.6L262.1,2h29.4l-0.7,42.3h7.9l0.2-42.2L328.3,2l-0.1,20.8L349.7,2h160.2l-0.3,21.2h0.1l-0.1,3.3l56.7-24.4h33.3V1.9h51
		l52.9,22.2l0.3-22.2h91.4l0,0h91l-0.3,21.6l0,0l-21.3,21.8h21l-0.4,28.3L673.7,73.5z M328,64.8l17.9-17.4l0.2-16.3h-18L328,64.8z
		 M794.5,44.2l-0.1,4.4l18-17.6h-17.7h-18.9l-0.2,13.1L794.5,44.2z M570.3,44.2l0.2-12.4l-28.8,12.4H570.3z M447.5,37.1l6.1-6h-6
		L447.5,37.1z"/>
	<path class="st0" d="M247.2,36.1l0.1-28h-17.2l-0.2,39L263,61l0.4-17.7L247.2,36.1z M304.9,8.2l-0.2,42.3h-20.2l0.7-42.3H268
		l-0.9,54.6l11,4.6h43.8l0.2-59.3L304.9,8.2z M352,46.1h44.1l-4.4,4.3h-40.2l-17.4,17h64.5l13.5-13.1l0.2-15.6h-7.4l7.5-7.3V29
		h-60.1L352,46.1z M352.1,8.1l-17.4,16.8l77.7,0.1l0.3-16.9H352.1L352.1,8.1z M697.7,28.2l-33.5-14l-0.3,17.9l16.2,7.2l-0.3,28.1
		H697L697.7,28.2z M649.2,7.9h-43.7l-0.9,59.5h17.2l0.5-42.4h20.4L642,67.5h17.2l0.9-54.9L649.2,7.9z M708.8,67.4l0.6-38.4h17.3
		l-0.3,21.4h61.9l-0.3,17H708.8z M730.4,45.8l0.3-16.7h39l-0.3,16.7H730.4z M709.5,24.9l0.3-17H789l-0.3,17H709.5z M829.8,46.3h17.9
		l17.4-17h-42.2l-22.8,22.3l-0.2,15.8H879l0.3-17h-53.6L829.8,46.3z M800.8,7.9l-0.3,17h77.4l1.7-1.7l0.2-15.4L800.8,7.9z
		 M851.8,46.3l4.6,0.1l17.4-17l-4.6-0.1L851.8,46.3z M447,46.2h28.3l-21.8,21.2h24.3l25-24l0.4-14.2h-39L447,46.2z M424.7,8.1
		l-0.3,17h17l0,0h61.9l0.3-17H424.7z M441.5,28.6h-17.1l-0.7,38.7h24l17.4-17h-24L441.5,28.6z M514.6,50.4L514.6,50.4l-0.3,17H572
		l0.3-17H514.6z M594.2,8.1h-26.7l-52.7,22.7L514.7,47h17.2v-5.1l38.9-16.8h5.8l-0.5,42.3h17.2l0.7-42.3l0,0l0.1-9.5v-0.1v-0.1
		L594.2,8.1z"/>
	<path class="st0" d="M246.1,179.4c0,2.7-2.1,4.9-4.8,4.9h-0.1h-10.5l0,0l0,0l-0.2-15.4h9.7c2.3,0,4.2,1.9,4.2,4.2
		c0,0.8-0.2,1.6-0.6,2.2C245.3,176.2,246.1,177.8,246.1,179.4z M233.4,174.5h7c0.8,0,1.4-0.6,1.4-1.4l0,0c0-0.8-0.6-1.4-1.4-1.4h-7
		V174.5z M243.4,179.4c0-1.2-1-2.2-2.2-2.2h-7.7l0.1,4.3h7.7C242.4,181.6,243.4,180.6,243.4,179.4L243.4,179.4L243.4,179.4z
		 M288,168.9L288,168.9l-5.9,7.7l0,0l-0.3,0.4l0.1,7.3h-2.8l-0.1-7.2l-0.4-0.5l0,0l-6.1-7.7h3.5l4.3,5.5l4.2-5.5L288,168.9
		L288,168.9z M272.8,184.3L272.8,184.3L272.8,184.3L272.8,184.3z M288.2,184.3L288.2,184.3L288.2,184.3L288.2,184.3z M368.7,181
		L368.7,181l-0.9,3.3l0,0l0,0l-2.1-2.8l0,0l-3.1-4.2l-3,4.2l-2,2.8l0,0l0,0l-1-3.3l-3.7-12.1h2.9l2.9,9.3l0,0l0,0l2.3-3.2l0.4-0.6
		l1.2-1.7l1.3,1.7l0.5,0.6l2.4,3.2l2.6-9.3h2.9L368.7,181z M402.1,173.1v1.4h9.9v2.7h-9.9v2.9c0,0.8,0.6,1.4,1.4,1.4h11.2v2.7h-11
		c-2.3,0-4.2-1.9-4.2-4.2l-0.1-7.1c0-2.3,1.8-4.1,4-4.2h0.1h11.2v2.7h-11.2C402.8,171.7,402.1,172.3,402.1,173.1L402.1,173.1
		L402.1,173.1z M458.4,179.4c0,2.7-2.1,4.9-4.8,4.9h-0.1H443l0,0l0,0l-0.2-15.4h9.7c2.3,0,4.2,1.9,4.2,4.2c0,0.8-0.2,1.6-0.6,2.2
		C457.6,176.2,458.4,177.8,458.4,179.4z M445.7,174.5h7c0.8,0,1.4-0.6,1.4-1.4l0,0c0-0.8-0.6-1.4-1.4-1.4h-7V174.5z M455.7,179.4
		c0-1.2-1-2.2-2.2-2.2h-7.8l0.1,4.3h7.7C454.7,181.6,455.7,180.6,455.7,179.4L455.7,179.4L455.7,179.4z M500.1,176.7
		c0.8,0.8,1.3,2,1.3,3.2c0,2.5-1.9,4.5-4.4,4.5h-0.1H486v-2.7h10.9c1,0,1.8-0.8,1.8-1.8l0,0c0-1-0.8-1.7-1.7-1.8h-0.1h-8.2v-2.8h8.1
		h0.1c1,0,1.7-0.8,1.7-1.8s-0.8-1.8-1.8-1.8h-10.9V169h10.8c2.5,0,4.6,2,4.6,4.5C501.4,174.7,500.9,175.8,500.1,176.7L500.1,176.7z
		 M532.3,176.6c0,2.7,2.3,4.9,5,5h5v-2.9h-5V176h7.7l0.1,8.4h-7.7c-4.3,0-7.7-3.4-7.8-7.7c-0.1-4.2,3.3-7.6,7.5-7.7h0.1h7.7v2.7
		h-7.7C534.5,171.7,532.3,173.9,532.3,176.6L532.3,176.6L532.3,176.6z M588,184.3h-3.1l-1.4-2.8l-3.4-6.6l-3.3,6.6l-1.4,2.8h-3.1
		l1.4-2.8l6.3-12.6l6.6,12.6L588,184.3z M630.5,168.9l0.2,15.4h-2.8l-0.1-9.8l-2.7,2.1l-2.2,1.7l-2.3-1.7l-2.7-2.1l0.1,9.8h-2.8
		l-0.2-15.4l2.8,2.1l5,3.8l4.9-3.8L630.5,168.9z M661.4,173.1v1.4h9.9v2.7h-9.9v2.9c0,0.8,0.6,1.4,1.4,1.4H674v2.7h-11.2
		c-2.3,0-4.2-1.9-4.2-4.2l-0.1-7.1c0-2.3,1.8-4.1,4-4.2h0.1h11.2v2.7h-11.2C662,171.7,661.4,172.3,661.4,173.1L661.4,173.1
		L661.4,173.1z M714,173.2L714,173.2c0-0.9-0.7-1.5-1.4-1.5h-6.2c-0.8,0-1.4,0.6-1.4,1.4l0,0v0.1c0,0.8,0.6,1.4,1.4,1.4h5.5
		c1.4,0,2.7,0.6,3.6,1.6c0.1,0.1,0.1,0.1,0.2,0.2c0.7,0.9,1.1,1.9,1.1,3.1c0,2.6-2.1,4.8-4.7,4.9H712h-4.8c-2.7,0-4.9-2.2-4.9-4.9
		h2.7c0,1.2,1,2.1,2.1,2.1h4.8c1.2,0,2.1-0.9,2.1-2.1l0,0c0-1.2-1-2.1-2.2-2.1h-5.5c-1.1,0-2.1-0.4-2.9-1.2
		c-0.2-0.2-0.4-0.4-0.5-0.6c-0.5-0.7-0.8-1.5-0.8-2.4v-0.1c0-2.3,1.8-4.1,4-4.2h0.1h6.2c2.3,0,4.2,1.9,4.2,4.2v0.1H714z
		 M745.1,184.5v-2.7h2.7v2.7H745.1z M778.4,176.6c0,2.7,2.3,4.9,5,5h7.7v2.7h-7.7c-4.3,0-7.7-3.4-7.8-7.7c-0.1-4.2,3.3-7.6,7.5-7.7
		h0.1h7.7v2.7h-7.7C780.6,171.7,778.4,173.9,778.4,176.6L778.4,176.6L778.4,176.6z M833.1,176.6c0.1,4.2-3.3,7.6-7.5,7.7h-0.1
		c-4.3,0-7.7-3.4-7.8-7.7c-0.1-4.2,3.3-7.6,7.5-7.7h0.1C829.6,168.9,833,172.4,833.1,176.6L833.1,176.6z M830.3,176.6
		c0-2.7-2.3-4.9-5-5c-2.7,0-4.9,2.2-4.9,4.9v0.1c0,2.7,2.3,4.9,5,5C828.2,181.6,830.3,179.4,830.3,176.6
		C830.3,176.7,830.3,176.7,830.3,176.6L830.3,176.6z M876,168.9l0.2,15.4h-2.8l-0.1-9.8l-2.7,2.1l-2.2,1.7l-2.3-1.7l-2.7-2.1
		l0.1,9.8h-2.8l-0.2-15.4l2.8,2.1l5,3.8l4.9-3.8L876,168.9z"/>
	
		<linearGradient id="SVGID_00000092416874705652472040000009471014004750989185_" gradientUnits="userSpaceOnUse" x1="987.5175" y1="-1108.4078" x2="199.5689" y2="-1123.2747" gradientTransform="matrix(1 0 0 -1 0 -999.0383)">
		<stop  offset="6.838000e-02" style="stop-color:#A8FFFF"/>
		<stop  offset="0.5084" style="stop-color:#4C00FF"/>
		<stop  offset="0.5666" style="stop-color:#5600FE"/>
		<stop  offset="0.667" style="stop-color:#7200FC"/>
		<stop  offset="0.7976" style="stop-color:#A000F8"/>
		<stop  offset="0.9517" style="stop-color:#DE00F3"/>
		<stop  offset="1" style="stop-color:#F300F1"/>
	</linearGradient>
	<path style="fill:url(#SVGID_00000092416874705652472040000009471014004750989185_);" d="M555.2,153.5l-15.9-6.7v-0.1l-37-15.5
		l0.8-49.2h29.4l-0.4,30.2l8,3.6l0.9-33.7h29.4l-1.1,42.3h7.9l0.6-42.2l29.4-0.1l-0.9,71.5L555.2,153.5z M791.8,153.5v-0.2h-34.3
		l-18.7-18.6h-9.5l-0.2,18.6h-29.4l0.5-42.3h-0.1l0.3-29.2h91.2l-0.3,33.5l-15.3,15l15.9,15.9l0.4-37.1l0.2-27.3H822l-0.1,16.7
		L838.7,82h28.7l0.2-0.2h24.9l-30.6,30.1H850l-2.6,2.6l9.8,9.7h26.2l-0.3,29.1H854l-8.6,0.2l-21.2-21h-2.6l-0.2,21.1L791.8,153.5z
		 M607,153.3l0.7-71.7h91.4l-0.7,71.7H607z M669.3,124l0.1-13.2h-32.5l-0.1,13.2H669.3z M440.3,153.3l0.4-42.4h-31l0.3-29.3h91.6
		l-0.3,29.3h-31.1l-0.4,42.4L440.3,153.3L440.3,153.3z M316.5,153.3l0.7-71.7h91.4l-0.3,29.3h-18.9l-0.1,13.2h18.9l-0.3,29.3
		L316.5,153.3L316.5,153.3L316.5,153.3z M285.9,153.3l0.3-29.9L257.6,111h-3.7l-0.4,42.4h-29.4l0.4-42.4l0.3-29.2H264l22.5,9.8l0,0
		l29.3,12.8l-0.5,49L285.9,153.3z"/>
	<path class="st0" d="M292.1,147.2l0.5-46.3l17.1,7.5l-0.4,38.9h-17.2V147.2z M230.3,147.2l0.4-38.3h17.2l-0.4,38.3H230.3z
		 M258.9,104.8h-28.2l0.2-17h31.8L288.5,99l-0.2,18.5L258.9,104.8z M322.6,147.2l0.4-38.4h17.3l-0.2,21.4H402l-0.2,17.1h-79.2
		L322.6,147.2L322.6,147.2z M344.1,125.3l0.2-16.4h39l-0.2,16.4H344.1z M323.1,104.7l0.2-17.1h79.2l-0.2,17.1H323.1z M446.5,147.2
		l0.4-38.4h17.3l-0.4,38.4H446.5z M415.9,104.8l0.2-17.1h79.4l-0.2,17.1H415.9z M613.2,147.2l0.2-17.1h61.9l0.2-21.4h17.2l-0.4,38.4
		h-79.1L613.2,147.2L613.2,147.2z M613.4,126.1l0.4-38.4H693l-0.2,17.1h-61.9l-0.2,21.4L613.4,126.1z M760,147.2l-18.7-18.6h-18
		l-0.2,18.6h-17.2l0.4-35.5h42.5l35.5,35.5H760z M754.5,111.7h7.4l7.1-7l-62.7,0.1l0.2-17h78.9l-0.2,24.8l-15,14.7L754.5,111.7z
		 M847.9,105.2l0.3-0.2l17.4-17h-24.4l-21.6,21.2h-3.9l0.1-21.4h-17.3l-0.1,21.2l0,0l-0.4,38.4h17.2l0.2-21.2l35.4,0.1l-12.1-12.1
		L847.9,105.2z M847.7,147.2l6.2-0.1H877l0.2-16.9h-46.6L847.7,147.2z M877.5,87.8l-18.1,17.8H852l18.1-17.8H877.5z M525.8,116.1
		l0.4-28H509l-0.6,39.1l33.1,13.9l0.5-17.7L525.8,116.1z M583.8,88.2l-0.6,42.2H563l1.1-42.3h-17.2l-1.4,54.7l11,4.6h43.8l0.8-59.3
		L583.8,88.2z"/>
	
		<linearGradient id="SVGID_00000034808859969456134860000015780109223286968483_" gradientUnits="userSpaceOnUse" x1="123.742" y1="-1039.0767" x2="1077.7048" y2="-1034.1211" gradientTransform="matrix(1 0 0 -1 0 -999.0383)">
		<stop  offset="1.340000e-03" style="stop-color:#B3FFFF"/>
		<stop  offset="0.5084" style="stop-color:#4C00FF"/>
		<stop  offset="0.5666" style="stop-color:#5600FE"/>
		<stop  offset="0.667" style="stop-color:#7200FC"/>
		<stop  offset="0.7976" style="stop-color:#A000F8"/>
		<stop  offset="0.9517" style="stop-color:#DE00F3"/>
		<stop  offset="1" style="stop-color:#F300F1"/>
	</linearGradient>
	<path style="fill:url(#SVGID_00000034808859969456134860000015780109223286968483_);" d="M673.7,73.5l0.3-30.3l-8.1-3.6l-0.5,33.9
		h-29.5l0.7-42.5h-8.1L628,73.5H508.1l0.4-27l-28.3,27h-62.7l0.3-16.4L401,73.5H276.9l-16-6.7v-0.1l-37-15.5L224.1,2h29.4l-0.1,30.1
		l8.1,3.6L262.1,2h29.4l-0.7,42.3h7.9l0.2-42.2L328.3,2l-0.1,20.8L349.7,2h160.2l-0.3,21.2h0.1l-0.1,3.3l56.7-24.4h33.3V1.9h51
		l52.9,22.2l0.3-22.2h91.4l0,0h91l-0.3,21.6l0,0l-21.3,21.8h21l-0.4,28.3L673.7,73.5z M328,64.8l17.9-17.4l0.2-16.3h-18L328,64.8z
		 M794.5,44.2l-0.1,4.4l18-17.6h-17.7h-18.9l-0.2,13.1L794.5,44.2z M570.3,44.2l0.2-12.4l-28.8,12.4H570.3z M447.5,37.1l6.1-6h-6
		L447.5,37.1z"/>
	<path class="st0" d="M247.2,36.1l0.1-28h-17.2l-0.2,39L263,61l0.4-17.7L247.2,36.1z M304.9,8.2l-0.2,42.3h-20.2l0.7-42.3H268
		l-0.9,54.6l11,4.6h43.8l0.2-59.3L304.9,8.2z M352,46.1h44.1l-4.4,4.3h-40.2l-17.4,17h64.5l13.5-13.1l0.2-15.6h-7.4l7.5-7.3V29
		h-60.1L352,46.1z M352.1,8.1l-17.4,16.8l77.7,0.1l0.3-16.9H352.1L352.1,8.1z M697.7,28.2l-33.5-14l-0.3,17.9l16.2,7.2l-0.3,28.1
		H697L697.7,28.2z M649.2,7.9h-43.7l-0.9,59.5h17.2l0.5-42.4h20.4L642,67.5h17.2l0.9-54.9L649.2,7.9z M708.8,67.4l0.6-38.4h17.3
		l-0.3,21.4h61.9l-0.3,17H708.8z M730.4,45.8l0.3-16.7h39l-0.3,16.7H730.4z M709.5,24.9l0.3-17H789l-0.3,17H709.5z M829.8,46.3h17.9
		l17.4-17h-42.2l-22.8,22.3l-0.2,15.8H879l0.3-17h-53.6L829.8,46.3z M800.8,7.9l-0.3,17h77.4l1.7-1.7l0.2-15.4L800.8,7.9z
		 M851.8,46.3l4.6,0.1l17.4-17l-4.6-0.1L851.8,46.3z M447,46.2h28.3l-21.8,21.2h24.3l25-24l0.4-14.2h-39L447,46.2z M424.7,8.1
		l-0.3,17h17l0,0h61.9l0.3-17H424.7z M441.5,28.6h-17.1l-0.7,38.7h24l17.4-17h-24L441.5,28.6z M514.6,50.4L514.6,50.4l-0.3,17H572
		l0.3-17H514.6z M594.2,8.1h-26.7l-52.7,22.7L514.7,47h17.2v-5.1l38.9-16.8h5.8l-0.5,42.3h17.2l0.7-42.3l0,0l0.1-9.5v-0.1v-0.1
		L594.2,8.1z"/>
	
		<linearGradient id="SVGID_00000129913546231556497270000010528908057495260586_" gradientUnits="userSpaceOnUse" x1="48.1352" y1="-304.8326" x2="160.283" y2="-447.0688" gradientTransform="matrix(1 0 0 -1 0 -302.8)">
		<stop  offset="1.340000e-03" style="stop-color:#B3FFFF"/>
		<stop  offset="5.900602e-02" style="stop-color:#AAE9FF"/>
		<stop  offset="0.1789" style="stop-color:#94B1FF"/>
		<stop  offset="0.349" style="stop-color:#7059FF"/>
		<stop  offset="0.5084" style="stop-color:#4C00FF"/>
		<stop  offset="0.5666" style="stop-color:#5600FE"/>
		<stop  offset="0.667" style="stop-color:#7200FC"/>
		<stop  offset="0.7976" style="stop-color:#A000F8"/>
		<stop  offset="0.9517" style="stop-color:#DE00F3"/>
		<stop  offset="1" style="stop-color:#F300F1"/>
	</linearGradient>
	<path style="fill:url(#SVGID_00000129913546231556497270000010528908057495260586_);" d="M59.1,126.7H27l-27-46l26.8-47.3l0,0
		L45.8,0h103.7l-22.3,36.5h78.2l-24.6,43h-27.3l15,25.9l-30.1,52.7H41.1L59.1,126.7z M115.8,119.1l22.8-39.6H96.1l21.3-37.3h-46
		L49.2,80.6L71.4,119h44.4V119.1z"/>
	<g>
		<polygon class="st0" points="146.1,80.6 119.9,126.1 67.5,126.1 53.3,151.1 134.4,151.1 160.5,105.4 		"/>
		<polygon class="st0" points="188.5,43.5 193.4,43.5 176.8,72.5 172,72.5 		"/>
		<polygon class="st0" points="184.5,43.5 124.7,43.5 108.2,72.5 168,72.5 		"/>
		<polygon class="st0" points="49.9,7 33.9,35.2 119.9,35.2 137,7 		"/>
		<polygon class="st0" points="64.3,40.4 30.9,40.4 8.1,80.6 31,119.7 63.7,119.7 41.1,80.6 		"/>
	</g>
</g>
<g class="st6">
	<path class="st0" d="M246.1,179.4c0,2.7-2.1,4.9-4.8,4.9h-0.1h-10.5l0,0l0,0l-0.2-15.4h9.7c2.3,0,4.2,1.9,4.2,4.2
		c0,0.8-0.2,1.6-0.6,2.2C245.3,176.2,246.1,177.8,246.1,179.4z M233.4,174.5h7c0.8,0,1.4-0.6,1.4-1.4l0,0c0-0.8-0.6-1.4-1.4-1.4h-7
		V174.5z M243.4,179.4c0-1.2-1-2.2-2.2-2.2h-7.7l0.1,4.3h7.7C242.4,181.6,243.4,180.6,243.4,179.4L243.4,179.4L243.4,179.4z
		 M288,168.9L288,168.9l-5.9,7.7l0,0l-0.3,0.4l0.1,7.3h-2.8l-0.1-7.2l-0.4-0.5l0,0l-6.1-7.7h3.5l4.3,5.5l4.2-5.5L288,168.9
		L288,168.9z M272.8,184.3L272.8,184.3L272.8,184.3L272.8,184.3z M288.2,184.3L288.2,184.3L288.2,184.3L288.2,184.3z M368.7,181
		L368.7,181l-0.9,3.3l0,0l0,0l-2.1-2.8l0,0l-3.1-4.2l-3,4.2l-2,2.8l0,0l0,0l-1-3.3l-3.7-12.1h2.9l2.9,9.3l0,0l0,0l2.3-3.2l0.4-0.6
		l1.2-1.7l1.3,1.7l0.5,0.6l2.4,3.2l2.6-9.3h2.9L368.7,181z M402.1,173.1v1.4h9.9v2.7h-9.9v2.9c0,0.8,0.6,1.4,1.4,1.4h11.2v2.7h-11
		c-2.3,0-4.2-1.9-4.2-4.2l-0.1-7.1c0-2.3,1.8-4.1,4-4.2h0.1h11.2v2.7h-11.2C402.8,171.7,402.1,172.3,402.1,173.1L402.1,173.1
		L402.1,173.1z M458.4,179.4c0,2.7-2.1,4.9-4.8,4.9h-0.1H443l0,0l0,0l-0.2-15.4h9.7c2.3,0,4.2,1.9,4.2,4.2c0,0.8-0.2,1.6-0.6,2.2
		C457.6,176.2,458.4,177.8,458.4,179.4z M445.7,174.5h7c0.8,0,1.4-0.6,1.4-1.4l0,0c0-0.8-0.6-1.4-1.4-1.4h-7V174.5z M455.7,179.4
		c0-1.2-1-2.2-2.2-2.2h-7.8l0.1,4.3h7.7C454.7,181.6,455.7,180.6,455.7,179.4L455.7,179.4L455.7,179.4z M500.1,176.7
		c0.8,0.8,1.3,2,1.3,3.2c0,2.5-1.9,4.5-4.4,4.5h-0.1H486v-2.7h10.9c1,0,1.8-0.8,1.8-1.8l0,0c0-1-0.8-1.7-1.7-1.8h-0.1h-8.2v-2.8h8.1
		h0.1c1,0,1.7-0.8,1.7-1.8s-0.8-1.8-1.8-1.8h-10.9V169h10.8c2.5,0,4.6,2,4.6,4.5C501.4,174.7,500.9,175.8,500.1,176.7L500.1,176.7z
		 M532.3,176.6c0,2.7,2.3,4.9,5,5h5v-2.9h-5V176h7.7l0.1,8.4h-7.7c-4.3,0-7.7-3.4-7.8-7.7c-0.1-4.2,3.3-7.6,7.5-7.7h0.1h7.7v2.7
		h-7.7C534.5,171.7,532.3,173.9,532.3,176.6L532.3,176.6L532.3,176.6z M588,184.3h-3.1l-1.4-2.8l-3.4-6.6l-3.3,6.6l-1.4,2.8h-3.1
		l1.4-2.8l6.3-12.6l6.6,12.6L588,184.3z M630.5,168.9l0.2,15.4h-2.8l-0.1-9.8l-2.7,2.1l-2.2,1.7l-2.3-1.7l-2.7-2.1l0.1,9.8h-2.8
		l-0.2-15.4l2.8,2.1l5,3.8l4.9-3.8L630.5,168.9z M661.4,173.1v1.4h9.9v2.7h-9.9v2.9c0,0.8,0.6,1.4,1.4,1.4H674v2.7h-11.2
		c-2.3,0-4.2-1.9-4.2-4.2l-0.1-7.1c0-2.3,1.8-4.1,4-4.2h0.1h11.2v2.7h-11.2C662,171.7,661.4,172.3,661.4,173.1L661.4,173.1
		L661.4,173.1z M714,173.2L714,173.2c0-0.9-0.7-1.5-1.4-1.5h-6.2c-0.8,0-1.4,0.6-1.4,1.4l0,0v0.1c0,0.8,0.6,1.4,1.4,1.4h5.5
		c1.4,0,2.7,0.6,3.6,1.6c0.1,0.1,0.1,0.1,0.2,0.2c0.7,0.9,1.1,1.9,1.1,3.1c0,2.6-2.1,4.8-4.7,4.9H712h-4.8c-2.7,0-4.9-2.2-4.9-4.9
		h2.7c0,1.2,1,2.1,2.1,2.1h4.8c1.2,0,2.1-0.9,2.1-2.1l0,0c0-1.2-1-2.1-2.2-2.1h-5.5c-1.1,0-2.1-0.4-2.9-1.2
		c-0.2-0.2-0.4-0.4-0.5-0.6c-0.5-0.7-0.8-1.5-0.8-2.4v-0.1c0-2.3,1.8-4.1,4-4.2h0.1h6.2c2.3,0,4.2,1.9,4.2,4.2v0.1H714z
		 M745.1,184.5v-2.7h2.7v2.7H745.1z M778.4,176.6c0,2.7,2.3,4.9,5,5h7.7v2.7h-7.7c-4.3,0-7.7-3.4-7.8-7.7c-0.1-4.2,3.3-7.6,7.5-7.7
		h0.1h7.7v2.7h-7.7C780.6,171.7,778.4,173.9,778.4,176.6L778.4,176.6L778.4,176.6z M833.1,176.6c0.1,4.2-3.3,7.6-7.5,7.7h-0.1
		c-4.3,0-7.7-3.4-7.8-7.7c-0.1-4.2,3.3-7.6,7.5-7.7h0.1C829.6,168.9,833,172.4,833.1,176.6L833.1,176.6z M830.3,176.6
		c0-2.7-2.3-4.9-5-5c-2.7,0-4.9,2.2-4.9,4.9v0.1c0,2.7,2.3,4.9,5,5C828.2,181.6,830.3,179.4,830.3,176.6
		C830.3,176.7,830.3,176.7,830.3,176.6L830.3,176.6z M876,168.9l0.2,15.4h-2.8l-0.1-9.8l-2.7,2.1l-2.2,1.7l-2.3-1.7l-2.7-2.1
		l0.1,9.8h-2.8l-0.2-15.4l2.8,2.1l5,3.8l4.9-3.8L876,168.9z"/>
	
		<linearGradient id="SVGID_00000008860946905441084190000010530354886101856649_" gradientUnits="userSpaceOnUse" x1="987.5175" y1="-1108.4078" x2="199.5689" y2="-1123.2747" gradientTransform="matrix(1 0 0 -1 0 -999.0383)">
		<stop  offset="6.838000e-02" style="stop-color:#A8FFFF"/>
		<stop  offset="0.5084" style="stop-color:#4C00FF"/>
		<stop  offset="0.5666" style="stop-color:#5600FE"/>
		<stop  offset="0.667" style="stop-color:#7200FC"/>
		<stop  offset="0.7976" style="stop-color:#A000F8"/>
		<stop  offset="0.9517" style="stop-color:#DE00F3"/>
		<stop  offset="1" style="stop-color:#F300F1"/>
	</linearGradient>
	<path style="fill:url(#SVGID_00000008860946905441084190000010530354886101856649_);" d="M555.2,153.5l-15.9-6.7v-0.1l-37-15.5
		l0.8-49.2h29.4l-0.4,30.2l8,3.6l0.9-33.7h29.4l-1.1,42.3h7.9l0.6-42.2l29.4-0.1l-0.9,71.5L555.2,153.5z M791.8,153.5v-0.2h-34.3
		l-18.7-18.6h-9.5l-0.2,18.6h-29.4l0.5-42.3h-0.1l0.3-29.2h91.2l-0.3,33.5l-15.3,15l15.9,15.9l0.4-37.1l0.2-27.3H822l-0.1,16.7
		L838.7,82h28.7l0.2-0.2h24.9l-30.6,30.1H850l-2.6,2.6l9.8,9.7h26.2l-0.3,29.1H854l-8.6,0.2l-21.2-21h-2.6l-0.2,21.1L791.8,153.5z
		 M607,153.3l0.7-71.7h91.4l-0.7,71.7H607z M669.3,124l0.1-13.2h-32.5l-0.1,13.2H669.3z M440.3,153.3l0.4-42.4h-31l0.3-29.3h91.6
		l-0.3,29.3h-31.1l-0.4,42.4L440.3,153.3L440.3,153.3z M316.5,153.3l0.7-71.7h91.4l-0.3,29.3h-18.9l-0.1,13.2h18.9l-0.3,29.3
		L316.5,153.3L316.5,153.3L316.5,153.3z M285.9,153.3l0.3-29.9L257.6,111h-3.7l-0.4,42.4h-29.4l0.4-42.4l0.3-29.2H264l22.5,9.8l0,0
		l29.3,12.8l-0.5,49L285.9,153.3z"/>
	<path class="st0" d="M292.1,147.2l0.5-46.3l17.1,7.5l-0.4,38.9h-17.2V147.2z M230.3,147.2l0.4-38.3h17.2l-0.4,38.3H230.3z
		 M258.9,104.8h-28.2l0.2-17h31.8L288.5,99l-0.2,18.5L258.9,104.8z M322.6,147.2l0.4-38.4h17.3l-0.2,21.4H402l-0.2,17.1h-79.2
		L322.6,147.2L322.6,147.2z M344.1,125.3l0.2-16.4h39l-0.2,16.4H344.1z M323.1,104.7l0.2-17.1h79.2l-0.2,17.1H323.1z M446.5,147.2
		l0.4-38.4h17.3l-0.4,38.4H446.5z M415.9,104.8l0.2-17.1h79.4l-0.2,17.1H415.9z M613.2,147.2l0.2-17.1h61.9l0.2-21.4h17.2l-0.4,38.4
		h-79.1L613.2,147.2L613.2,147.2z M613.4,126.1l0.4-38.4H693l-0.2,17.1h-61.9l-0.2,21.4L613.4,126.1z M760,147.2l-18.7-18.6h-18
		l-0.2,18.6h-17.2l0.4-35.5h42.5l35.5,35.5H760z M754.5,111.7h7.4l7.1-7l-62.7,0.1l0.2-17h78.9l-0.2,24.8l-15,14.7L754.5,111.7z
		 M847.9,105.2l0.3-0.2l17.4-17h-24.4l-21.6,21.2h-3.9l0.1-21.4h-17.3l-0.1,21.2l0,0l-0.4,38.4h17.2l0.2-21.2l35.4,0.1l-12.1-12.1
		L847.9,105.2z M847.7,147.2l6.2-0.1H877l0.2-16.9h-46.6L847.7,147.2z M877.5,87.8l-18.1,17.8H852l18.1-17.8H877.5z M525.8,116.1
		l0.4-28H509l-0.6,39.1l33.1,13.9l0.5-17.7L525.8,116.1z M583.8,88.2l-0.6,42.2H563l1.1-42.3h-17.2l-1.4,54.7l11,4.6h43.8l0.8-59.3
		L583.8,88.2z"/>
	
		<linearGradient id="SVGID_00000079461516857635610280000010090319878468345479_" gradientUnits="userSpaceOnUse" x1="123.742" y1="-1039.0767" x2="1077.7048" y2="-1034.1211" gradientTransform="matrix(1 0 0 -1 0 -999.0383)">
		<stop  offset="1.340000e-03" style="stop-color:#B3FFFF"/>
		<stop  offset="0.5084" style="stop-color:#4C00FF"/>
		<stop  offset="0.5666" style="stop-color:#5600FE"/>
		<stop  offset="0.667" style="stop-color:#7200FC"/>
		<stop  offset="0.7976" style="stop-color:#A000F8"/>
		<stop  offset="0.9517" style="stop-color:#DE00F3"/>
		<stop  offset="1" style="stop-color:#F300F1"/>
	</linearGradient>
	<path style="fill:url(#SVGID_00000079461516857635610280000010090319878468345479_);" d="M673.7,73.5l0.3-30.3l-8.1-3.6l-0.5,33.9
		h-29.5l0.7-42.5h-8.1L628,73.5H508.1l0.4-27l-28.3,27h-62.7l0.3-16.4L401,73.5H276.9l-16-6.7v-0.1l-37-15.5L224.1,2h29.4l-0.1,30.1
		l8.1,3.6L262.1,2h29.4l-0.7,42.3h7.9l0.2-42.2L328.3,2l-0.1,20.8L349.7,2h160.2l-0.3,21.2h0.1l-0.1,3.3l56.7-24.4h33.3V1.9h51
		l52.9,22.2l0.3-22.2h91.4l0,0h91l-0.3,21.6l0,0l-21.3,21.8h21l-0.4,28.3L673.7,73.5z M328,64.8l17.9-17.4l0.2-16.3h-18L328,64.8z
		 M794.5,44.2l-0.1,4.4l18-17.6h-17.7h-18.9l-0.2,13.1L794.5,44.2z M570.3,44.2l0.2-12.4l-28.8,12.4H570.3z M447.5,37.1l6.1-6h-6
		L447.5,37.1z"/>
	<path class="st0" d="M247.2,36.1l0.1-28h-17.2l-0.2,39L263,61l0.4-17.7L247.2,36.1z M304.9,8.2l-0.2,42.3h-20.2l0.7-42.3H268
		l-0.9,54.6l11,4.6h43.8l0.2-59.3L304.9,8.2z M352,46.1h44.1l-4.4,4.3h-40.2l-17.4,17h64.5l13.5-13.1l0.2-15.6h-7.4l7.5-7.3V29
		h-60.1L352,46.1z M352.1,8.1l-17.4,16.8l77.7,0.1l0.3-16.9H352.1L352.1,8.1z M697.7,28.2l-33.5-14l-0.3,17.9l16.2,7.2l-0.3,28.1
		H697L697.7,28.2z M649.2,7.9h-43.7l-0.9,59.5h17.2l0.5-42.4h20.4L642,67.5h17.2l0.9-54.9L649.2,7.9z M708.8,67.4l0.6-38.4h17.3
		l-0.3,21.4h61.9l-0.3,17H708.8z M730.4,45.8l0.3-16.7h39l-0.3,16.7H730.4z M709.5,24.9l0.3-17H789l-0.3,17H709.5z M829.8,46.3h17.9
		l17.4-17h-42.2l-22.8,22.3l-0.2,15.8H879l0.3-17h-53.6L829.8,46.3z M800.8,7.9l-0.3,17h77.4l1.7-1.7l0.2-15.4L800.8,7.9z
		 M851.8,46.3l4.6,0.1l17.4-17l-4.6-0.1L851.8,46.3z M447,46.2h28.3l-21.8,21.2h24.3l25-24l0.4-14.2h-39L447,46.2z M424.7,8.1
		l-0.3,17h17l0,0h61.9l0.3-17H424.7z M441.5,28.6h-17.1l-0.7,38.7h24l17.4-17h-24L441.5,28.6z M514.6,50.4L514.6,50.4l-0.3,17H572
		l0.3-17H514.6z M594.2,8.1h-26.7l-52.7,22.7L514.7,47h17.2v-5.1l38.9-16.8h5.8l-0.5,42.3h17.2l0.7-42.3l0,0l0.1-9.5v-0.1v-0.1
		L594.2,8.1z"/>
	<path class="st0" d="M246.1,179.4c0,2.7-2.1,4.9-4.8,4.9h-0.1h-10.5l0,0l0,0l-0.2-15.4h9.7c2.3,0,4.2,1.9,4.2,4.2
		c0,0.8-0.2,1.6-0.6,2.2C245.3,176.2,246.1,177.8,246.1,179.4z M233.4,174.5h7c0.8,0,1.4-0.6,1.4-1.4l0,0c0-0.8-0.6-1.4-1.4-1.4h-7
		V174.5z M243.4,179.4c0-1.2-1-2.2-2.2-2.2h-7.7l0.1,4.3h7.7C242.4,181.6,243.4,180.6,243.4,179.4L243.4,179.4L243.4,179.4z
		 M288,168.9L288,168.9l-5.9,7.7l0,0l-0.3,0.4l0.1,7.3h-2.8l-0.1-7.2l-0.4-0.5l0,0l-6.1-7.7h3.5l4.3,5.5l4.2-5.5L288,168.9
		L288,168.9z M272.8,184.3L272.8,184.3L272.8,184.3L272.8,184.3z M288.2,184.3L288.2,184.3L288.2,184.3L288.2,184.3z M368.7,181
		L368.7,181l-0.9,3.3l0,0l0,0l-2.1-2.8l0,0l-3.1-4.2l-3,4.2l-2,2.8l0,0l0,0l-1-3.3l-3.7-12.1h2.9l2.9,9.3l0,0l0,0l2.3-3.2l0.4-0.6
		l1.2-1.7l1.3,1.7l0.5,0.6l2.4,3.2l2.6-9.3h2.9L368.7,181z M402.1,173.1v1.4h9.9v2.7h-9.9v2.9c0,0.8,0.6,1.4,1.4,1.4h11.2v2.7h-11
		c-2.3,0-4.2-1.9-4.2-4.2l-0.1-7.1c0-2.3,1.8-4.1,4-4.2h0.1h11.2v2.7h-11.2C402.8,171.7,402.1,172.3,402.1,173.1L402.1,173.1
		L402.1,173.1z M458.4,179.4c0,2.7-2.1,4.9-4.8,4.9h-0.1H443l0,0l0,0l-0.2-15.4h9.7c2.3,0,4.2,1.9,4.2,4.2c0,0.8-0.2,1.6-0.6,2.2
		C457.6,176.2,458.4,177.8,458.4,179.4z M445.7,174.5h7c0.8,0,1.4-0.6,1.4-1.4l0,0c0-0.8-0.6-1.4-1.4-1.4h-7V174.5z M455.7,179.4
		c0-1.2-1-2.2-2.2-2.2h-7.8l0.1,4.3h7.7C454.7,181.6,455.7,180.6,455.7,179.4L455.7,179.4L455.7,179.4z M500.1,176.7
		c0.8,0.8,1.3,2,1.3,3.2c0,2.5-1.9,4.5-4.4,4.5h-0.1H486v-2.7h10.9c1,0,1.8-0.8,1.8-1.8l0,0c0-1-0.8-1.7-1.7-1.8h-0.1h-8.2v-2.8h8.1
		h0.1c1,0,1.7-0.8,1.7-1.8s-0.8-1.8-1.8-1.8h-10.9V169h10.8c2.5,0,4.6,2,4.6,4.5C501.4,174.7,500.9,175.8,500.1,176.7L500.1,176.7z
		 M532.3,176.6c0,2.7,2.3,4.9,5,5h5v-2.9h-5V176h7.7l0.1,8.4h-7.7c-4.3,0-7.7-3.4-7.8-7.7c-0.1-4.2,3.3-7.6,7.5-7.7h0.1h7.7v2.7
		h-7.7C534.5,171.7,532.3,173.9,532.3,176.6L532.3,176.6L532.3,176.6z M588,184.3h-3.1l-1.4-2.8l-3.4-6.6l-3.3,6.6l-1.4,2.8h-3.1
		l1.4-2.8l6.3-12.6l6.6,12.6L588,184.3z M630.5,168.9l0.2,15.4h-2.8l-0.1-9.8l-2.7,2.1l-2.2,1.7l-2.3-1.7l-2.7-2.1l0.1,9.8h-2.8
		l-0.2-15.4l2.8,2.1l5,3.8l4.9-3.8L630.5,168.9z M661.4,173.1v1.4h9.9v2.7h-9.9v2.9c0,0.8,0.6,1.4,1.4,1.4H674v2.7h-11.2
		c-2.3,0-4.2-1.9-4.2-4.2l-0.1-7.1c0-2.3,1.8-4.1,4-4.2h0.1h11.2v2.7h-11.2C662,171.7,661.4,172.3,661.4,173.1L661.4,173.1
		L661.4,173.1z M714,173.2L714,173.2c0-0.9-0.7-1.5-1.4-1.5h-6.2c-0.8,0-1.4,0.6-1.4,1.4l0,0v0.1c0,0.8,0.6,1.4,1.4,1.4h5.5
		c1.4,0,2.7,0.6,3.6,1.6c0.1,0.1,0.1,0.1,0.2,0.2c0.7,0.9,1.1,1.9,1.1,3.1c0,2.6-2.1,4.8-4.7,4.9H712h-4.8c-2.7,0-4.9-2.2-4.9-4.9
		h2.7c0,1.2,1,2.1,2.1,2.1h4.8c1.2,0,2.1-0.9,2.1-2.1l0,0c0-1.2-1-2.1-2.2-2.1h-5.5c-1.1,0-2.1-0.4-2.9-1.2
		c-0.2-0.2-0.4-0.4-0.5-0.6c-0.5-0.7-0.8-1.5-0.8-2.4v-0.1c0-2.3,1.8-4.1,4-4.2h0.1h6.2c2.3,0,4.2,1.9,4.2,4.2v0.1H714z
		 M745.1,184.5v-2.7h2.7v2.7H745.1z M778.4,176.6c0,2.7,2.3,4.9,5,5h7.7v2.7h-7.7c-4.3,0-7.7-3.4-7.8-7.7c-0.1-4.2,3.3-7.6,7.5-7.7
		h0.1h7.7v2.7h-7.7C780.6,171.7,778.4,173.9,778.4,176.6L778.4,176.6L778.4,176.6z M833.1,176.6c0.1,4.2-3.3,7.6-7.5,7.7h-0.1
		c-4.3,0-7.7-3.4-7.8-7.7c-0.1-4.2,3.3-7.6,7.5-7.7h0.1C829.6,168.9,833,172.4,833.1,176.6L833.1,176.6z M830.3,176.6
		c0-2.7-2.3-4.9-5-5c-2.7,0-4.9,2.2-4.9,4.9v0.1c0,2.7,2.3,4.9,5,5C828.2,181.6,830.3,179.4,830.3,176.6
		C830.3,176.7,830.3,176.7,830.3,176.6L830.3,176.6z M876,168.9l0.2,15.4h-2.8l-0.1-9.8l-2.7,2.1l-2.2,1.7l-2.3-1.7l-2.7-2.1
		l0.1,9.8h-2.8l-0.2-15.4l2.8,2.1l5,3.8l4.9-3.8L876,168.9z"/>
	
		<linearGradient id="SVGID_00000078760256178684759860000011837125136860394899_" gradientUnits="userSpaceOnUse" x1="987.5175" y1="-1108.4078" x2="199.5689" y2="-1123.2747" gradientTransform="matrix(1 0 0 -1 0 -999.0383)">
		<stop  offset="6.838000e-02" style="stop-color:#A8FFFF"/>
		<stop  offset="0.5084" style="stop-color:#4C00FF"/>
		<stop  offset="0.5666" style="stop-color:#5600FE"/>
		<stop  offset="0.667" style="stop-color:#7200FC"/>
		<stop  offset="0.7976" style="stop-color:#A000F8"/>
		<stop  offset="0.9517" style="stop-color:#DE00F3"/>
		<stop  offset="1" style="stop-color:#F300F1"/>
	</linearGradient>
	<path style="fill:url(#SVGID_00000078760256178684759860000011837125136860394899_);" d="M555.2,153.5l-15.9-6.7v-0.1l-37-15.5
		l0.8-49.2h29.4l-0.4,30.2l8,3.6l0.9-33.7h29.4l-1.1,42.3h7.9l0.6-42.2l29.4-0.1l-0.9,71.5L555.2,153.5z M791.8,153.5v-0.2h-34.3
		l-18.7-18.6h-9.5l-0.2,18.6h-29.4l0.5-42.3h-0.1l0.3-29.2h91.2l-0.3,33.5l-15.3,15l15.9,15.9l0.4-37.1l0.2-27.3H822l-0.1,16.7
		L838.7,82h28.7l0.2-0.2h24.9l-30.6,30.1H850l-2.6,2.6l9.8,9.7h26.2l-0.3,29.1H854l-8.6,0.2l-21.2-21h-2.6l-0.2,21.1L791.8,153.5z
		 M607,153.3l0.7-71.7h91.4l-0.7,71.7H607z M669.3,124l0.1-13.2h-32.5l-0.1,13.2H669.3z M440.3,153.3l0.4-42.4h-31l0.3-29.3h91.6
		l-0.3,29.3h-31.1l-0.4,42.4L440.3,153.3L440.3,153.3z M316.5,153.3l0.7-71.7h91.4l-0.3,29.3h-18.9l-0.1,13.2h18.9l-0.3,29.3
		L316.5,153.3L316.5,153.3L316.5,153.3z M285.9,153.3l0.3-29.9L257.6,111h-3.7l-0.4,42.4h-29.4l0.4-42.4l0.3-29.2H264l22.5,9.8l0,0
		l29.3,12.8l-0.5,49L285.9,153.3z"/>
	<path class="st0" d="M292.1,147.2l0.5-46.3l17.1,7.5l-0.4,38.9h-17.2V147.2z M230.3,147.2l0.4-38.3h17.2l-0.4,38.3H230.3z
		 M258.9,104.8h-28.2l0.2-17h31.8L288.5,99l-0.2,18.5L258.9,104.8z M322.6,147.2l0.4-38.4h17.3l-0.2,21.4H402l-0.2,17.1h-79.2
		L322.6,147.2L322.6,147.2z M344.1,125.3l0.2-16.4h39l-0.2,16.4H344.1z M323.1,104.7l0.2-17.1h79.2l-0.2,17.1H323.1z M446.5,147.2
		l0.4-38.4h17.3l-0.4,38.4H446.5z M415.9,104.8l0.2-17.1h79.4l-0.2,17.1H415.9z M613.2,147.2l0.2-17.1h61.9l0.2-21.4h17.2l-0.4,38.4
		h-79.1L613.2,147.2L613.2,147.2z M613.4,126.1l0.4-38.4H693l-0.2,17.1h-61.9l-0.2,21.4L613.4,126.1z M760,147.2l-18.7-18.6h-18
		l-0.2,18.6h-17.2l0.4-35.5h42.5l35.5,35.5H760z M754.5,111.7h7.4l7.1-7l-62.7,0.1l0.2-17h78.9l-0.2,24.8l-15,14.7L754.5,111.7z
		 M847.9,105.2l0.3-0.2l17.4-17h-24.4l-21.6,21.2h-3.9l0.1-21.4h-17.3l-0.1,21.2l0,0l-0.4,38.4h17.2l0.2-21.2l35.4,0.1l-12.1-12.1
		L847.9,105.2z M847.7,147.2l6.2-0.1H877l0.2-16.9h-46.6L847.7,147.2z M877.5,87.8l-18.1,17.8H852l18.1-17.8H877.5z M525.8,116.1
		l0.4-28H509l-0.6,39.1l33.1,13.9l0.5-17.7L525.8,116.1z M583.8,88.2l-0.6,42.2H563l1.1-42.3h-17.2l-1.4,54.7l11,4.6h43.8l0.8-59.3
		L583.8,88.2z"/>
	
		<linearGradient id="SVGID_00000101791582619707034150000014470414344683207614_" gradientUnits="userSpaceOnUse" x1="123.742" y1="-1039.0767" x2="1077.7048" y2="-1034.1211" gradientTransform="matrix(1 0 0 -1 0 -999.0383)">
		<stop  offset="1.340000e-03" style="stop-color:#B3FFFF"/>
		<stop  offset="0.5084" style="stop-color:#4C00FF"/>
		<stop  offset="0.5666" style="stop-color:#5600FE"/>
		<stop  offset="0.667" style="stop-color:#7200FC"/>
		<stop  offset="0.7976" style="stop-color:#A000F8"/>
		<stop  offset="0.9517" style="stop-color:#DE00F3"/>
		<stop  offset="1" style="stop-color:#F300F1"/>
	</linearGradient>
	<path style="fill:url(#SVGID_00000101791582619707034150000014470414344683207614_);" d="M673.7,73.5l0.3-30.3l-8.1-3.6l-0.5,33.9
		h-29.5l0.7-42.5h-8.1L628,73.5H508.1l0.4-27l-28.3,27h-62.7l0.3-16.4L401,73.5H276.9l-16-6.7v-0.1l-37-15.5L224.1,2h29.4l-0.1,30.1
		l8.1,3.6L262.1,2h29.4l-0.7,42.3h7.9l0.2-42.2L328.3,2l-0.1,20.8L349.7,2h160.2l-0.3,21.2h0.1l-0.1,3.3l56.7-24.4h33.3V1.9h51
		l52.9,22.2l0.3-22.2h91.4l0,0h91l-0.3,21.6l0,0l-21.3,21.8h21l-0.4,28.3L673.7,73.5z M328,64.8l17.9-17.4l0.2-16.3h-18L328,64.8z
		 M794.5,44.2l-0.1,4.4l18-17.6h-17.7h-18.9l-0.2,13.1L794.5,44.2z M570.3,44.2l0.2-12.4l-28.8,12.4H570.3z M447.5,37.1l6.1-6h-6
		L447.5,37.1z"/>
	<path class="st0" d="M247.2,36.1l0.1-28h-17.2l-0.2,39L263,61l0.4-17.7L247.2,36.1z M304.9,8.2l-0.2,42.3h-20.2l0.7-42.3H268
		l-0.9,54.6l11,4.6h43.8l0.2-59.3L304.9,8.2z M352,46.1h44.1l-4.4,4.3h-40.2l-17.4,17h64.5l13.5-13.1l0.2-15.6h-7.4l7.5-7.3V29
		h-60.1L352,46.1z M352.1,8.1l-17.4,16.8l77.7,0.1l0.3-16.9H352.1L352.1,8.1z M697.7,28.2l-33.5-14l-0.3,17.9l16.2,7.2l-0.3,28.1
		H697L697.7,28.2z M649.2,7.9h-43.7l-0.9,59.5h17.2l0.5-42.4h20.4L642,67.5h17.2l0.9-54.9L649.2,7.9z M708.8,67.4l0.6-38.4h17.3
		l-0.3,21.4h61.9l-0.3,17H708.8z M730.4,45.8l0.3-16.7h39l-0.3,16.7H730.4z M709.5,24.9l0.3-17H789l-0.3,17H709.5z M829.8,46.3h17.9
		l17.4-17h-42.2l-22.8,22.3l-0.2,15.8H879l0.3-17h-53.6L829.8,46.3z M800.8,7.9l-0.3,17h77.4l1.7-1.7l0.2-15.4L800.8,7.9z
		 M851.8,46.3l4.6,0.1l17.4-17l-4.6-0.1L851.8,46.3z M447,46.2h28.3l-21.8,21.2h24.3l25-24l0.4-14.2h-39L447,46.2z M424.7,8.1
		l-0.3,17h17l0,0h61.9l0.3-17H424.7z M441.5,28.6h-17.1l-0.7,38.7h24l17.4-17h-24L441.5,28.6z M514.6,50.4L514.6,50.4l-0.3,17H572
		l0.3-17H514.6z M594.2,8.1h-26.7l-52.7,22.7L514.7,47h17.2v-5.1l38.9-16.8h5.8l-0.5,42.3h17.2l0.7-42.3l0,0l0.1-9.5v-0.1v-0.1
		L594.2,8.1z"/>
	
		<linearGradient id="SVGID_00000145047326971741884420000002776619169441288340_" gradientUnits="userSpaceOnUse" x1="48.1352" y1="-304.8326" x2="160.283" y2="-447.0688" gradientTransform="matrix(1 0 0 -1 0 -302.8)">
		<stop  offset="1.340000e-03" style="stop-color:#B3FFFF"/>
		<stop  offset="5.900602e-02" style="stop-color:#AAE9FF"/>
		<stop  offset="0.1789" style="stop-color:#94B1FF"/>
		<stop  offset="0.349" style="stop-color:#7059FF"/>
		<stop  offset="0.5084" style="stop-color:#4C00FF"/>
		<stop  offset="0.5666" style="stop-color:#5600FE"/>
		<stop  offset="0.667" style="stop-color:#7200FC"/>
		<stop  offset="0.7976" style="stop-color:#A000F8"/>
		<stop  offset="0.9517" style="stop-color:#DE00F3"/>
		<stop  offset="1" style="stop-color:#F300F1"/>
	</linearGradient>
	<path style="fill:url(#SVGID_00000145047326971741884420000002776619169441288340_);" d="M59.1,126.7H27l-27-46l26.8-47.3l0,0
		L45.8,0h103.7l-22.3,36.5h78.2l-24.6,43h-27.3l15,25.9l-30.1,52.7H41.1L59.1,126.7z M115.8,119.1l22.8-39.6H96.1l21.3-37.3h-46
		L49.2,80.6L71.4,119h44.4V119.1z"/>
	<g>
		<polygon class="st0" points="146.1,80.6 119.9,126.1 67.5,126.1 53.3,151.1 134.4,151.1 160.5,105.4 		"/>
		<polygon class="st0" points="188.5,43.5 193.4,43.5 176.8,72.5 172,72.5 		"/>
		<polygon class="st0" points="184.5,43.5 124.7,43.5 108.2,72.5 168,72.5 		"/>
		<polygon class="st0" points="49.9,7 33.9,35.2 119.9,35.2 137,7 		"/>
		<polygon class="st0" points="64.3,40.4 30.9,40.4 8.1,80.6 31,119.7 63.7,119.7 41.1,80.6 		"/>
	</g>
</g>
</svg>
