<?xml version="1.0" encoding="utf-8"?>
<!-- Generator: Adobe Illustrator 26.2.1, SVG Export Plug-In . SVG Version: 6.00 Build 0)  -->
<svg version="1.1" xmlns="http://www.w3.org/2000/svg" xmlns:xlink="http://www.w3.org/1999/xlink" x="0px" y="0px"
	viewBox="0 0 281.4 281.4" style="enable-background:new 0 0 281.4 281.4;" xml:space="preserve">
	<style type="text/css">
		.st0 {
			fill: url(#SVGID_1_);
		}

		.st1 {
			fill: #FFFFFF;
		}
	</style>
	<g>

		<linearGradient id="SVGID_1_" gradientUnits="userSpaceOnUse" x1="86.0736" y1="1029.5436" x2="212.0437"
			y2="869.7768" gradientTransform="matrix(1 0 0 -1 0 1083.7156)">
			<stop offset="1.340000e-03" style="stop-color:#B3FFFF" />
			<stop offset="5.900602e-02" style="stop-color:#AAE9FF" />
			<stop offset="0.1789" style="stop-color:#94B1FF" />
			<stop offset="0.349" style="stop-color:#7059FF" />
			<stop offset="0.5084" style="stop-color:#4C00FF" />
			<stop offset="0.5666" style="stop-color:#5600FE" />
			<stop offset="0.667" style="stop-color:#7200FC" />
			<stop offset="0.7976" style="stop-color:#A000F8" />
			<stop offset="0.9517" style="stop-color:#DE00F3" />
			<stop offset="1" style="stop-color:#F300F1" />
		</linearGradient>
		<path class="st0" d="M98.3,194.4H62.3L32,142.7l30-53.2l0,0l21.3-37.7h116.5l-25.1,41h87.9l-27.7,48.2h-30.6l16.9,29l-33.8,59.2
		H78.1L98.3,194.4z M161.9,185.6l25.6-44.4h-47.7l23.9-41.8H112l-25,43.2l25,43.1L161.9,185.6L161.9,185.6z" />
		<g>
			<polygon class="st1" points="196,142.4 166.6,193.6 107.8,193.6 91.8,221.6 182.9,221.6 212.2,170.4 		" />
			<polygon class="st1" points="243.7,100.9 249.2,100.9 230.5,133.3 225.1,133.3 		" />
			<polygon class="st1" points="239.1,100.9 172,100.9 153.5,133.3 220.6,133.3 		" />
			<polygon class="st1" points="88,59.7 70,91.5 166.6,91.5 185.8,59.7 		" />
			<polygon class="st1" points="104.1,97.3 66.7,97.3 41,142.6 66.7,186.4 103.5,186.4 78.1,142.6 		" />
		</g>
	</g>
</svg>