<?xml version="1.0" encoding="utf-8"?>
<!-- Generator: Adobe Illustrator 26.2.1, SVG Export Plug-In . SVG Version: 6.00 Build 0)  -->
<svg version="1.1" id="图层_1" xmlns="http://www.w3.org/2000/svg" xmlns:xlink="http://www.w3.org/1999/xlink" x="0px" y="0px"
	 viewBox="0 0 281.4 281.4" style="enable-background:new 0 0 281.4 281.4;" xml:space="preserve">
<style type="text/css">
	.st0{fill:url(#SVGID_1_);}
	.st1{fill:#FFFFFF;}
	.st2{opacity:0.6;}
	.st3{fill:url(#SVGID_00000109019675800676969200000009075087203756771744_);}
</style>
<g>
	<g>
		
			<linearGradient id="SVGID_1_" gradientUnits="userSpaceOnUse" x1="97.5486" y1="-729.3454" x2="199.9095" y2="-599.5219" gradientTransform="matrix(1 0 0 1 0 799.7156)">
			<stop  offset="1.340000e-03" style="stop-color:#B3FFFF"/>
			<stop  offset="5.900602e-02" style="stop-color:#AAE9FF"/>
			<stop  offset="0.1789" style="stop-color:#94B1FF"/>
			<stop  offset="0.349" style="stop-color:#7059FF"/>
			<stop  offset="0.5084" style="stop-color:#4C00FF"/>
			<stop  offset="0.5666" style="stop-color:#5600FE"/>
			<stop  offset="0.667" style="stop-color:#7200FC"/>
			<stop  offset="0.7976" style="stop-color:#A000F8"/>
			<stop  offset="0.9517" style="stop-color:#DE00F3"/>
			<stop  offset="1" style="stop-color:#F300F1"/>
		</linearGradient>
		<path class="st0" d="M107.5,184.3H78.2l-24.6-42L78,99.1l0,0l17.3-30.6H190l-20.4,33.3H241L218.5,141h-24.9l13.7,23.6l-27.5,48.1
			H91.1L107.5,184.3z M159.2,177.2l20.8-36.1h-38.8l19.4-34h-42l-20.3,35.1l20.3,35L159.2,177.2L159.2,177.2z"/>
		<g>
			<polygon class="st1" points="186.9,142.1 163,183.7 115.2,183.7 102.2,206.4 176.2,206.4 200,164.8 			"/>
			<polygon class="st1" points="225.6,108.3 230.1,108.3 214.9,134.7 210.5,134.7 			"/>
			<polygon class="st1" points="221.9,108.3 167.4,108.3 152.3,134.7 206.9,134.7 			"/>
			<polygon class="st1" points="99.1,74.9 84.5,100.7 163,100.7 178.6,74.9 			"/>
			<polygon class="st1" points="112.2,105.4 81.8,105.4 60.9,142.2 81.8,177.8 111.7,177.8 91.1,142.2 			"/>
		</g>
	</g>
	<g class="st2">
		
			<linearGradient id="SVGID_00000039129553821398462130000008495558241117196980_" gradientUnits="userSpaceOnUse" x1="97.5486" y1="-729.3454" x2="199.9095" y2="-599.5219" gradientTransform="matrix(1 0 0 1 0 799.7156)">
			<stop  offset="1.340000e-03" style="stop-color:#B3FFFF"/>
			<stop  offset="5.900602e-02" style="stop-color:#AAE9FF"/>
			<stop  offset="0.1789" style="stop-color:#94B1FF"/>
			<stop  offset="0.349" style="stop-color:#7059FF"/>
			<stop  offset="0.5084" style="stop-color:#4C00FF"/>
			<stop  offset="0.5666" style="stop-color:#5600FE"/>
			<stop  offset="0.667" style="stop-color:#7200FC"/>
			<stop  offset="0.7976" style="stop-color:#A000F8"/>
			<stop  offset="0.9517" style="stop-color:#DE00F3"/>
			<stop  offset="1" style="stop-color:#F300F1"/>
		</linearGradient>
		<path style="fill:url(#SVGID_00000039129553821398462130000008495558241117196980_);" d="M107.5,184.3H78.2l-24.6-42L78,99.1l0,0
			l17.3-30.6H190l-20.4,33.3H241L218.5,141h-24.9l13.7,23.6l-27.5,48.1H91.1L107.5,184.3z M159.2,177.2l20.8-36.1h-38.8l19.4-34h-42
			l-20.3,35.1l20.3,35L159.2,177.2L159.2,177.2z"/>
		<g>
			<polygon class="st1" points="186.9,142.1 163,183.7 115.2,183.7 102.2,206.4 176.2,206.4 200,164.8 			"/>
			<polygon class="st1" points="225.6,108.3 230.1,108.3 214.9,134.7 210.5,134.7 			"/>
			<polygon class="st1" points="221.9,108.3 167.4,108.3 152.3,134.7 206.9,134.7 			"/>
			<polygon class="st1" points="99.1,74.9 84.5,100.7 163,100.7 178.6,74.9 			"/>
			<polygon class="st1" points="112.2,105.4 81.8,105.4 60.9,142.2 81.8,177.8 111.7,177.8 91.1,142.2 			"/>
		</g>
	</g>
</g>
</svg>
