<svg height="35.143" viewBox="0 0 241.855 35.143" width="241.855" xmlns="http://www.w3.org/2000/svg"><g fill="#fff"><path d="m924.828 933.653h-8.609a.217.217 0 0 0 -.217.217v11.422a.217.217 0 0 1 -.047.135l-8.84 11.166a.217.217 0 0 1 -.387-.135v-34.3a.217.217 0 0 1 .217-.217h8.955a.217.217 0 0 1 .17.082l8.93 11.277a.217.217 0 0 1 -.172.353z" transform="translate(-906.728 -921.939)"/><path d="m1103.6 933.729v11.563a.216.216 0 0 1 -.047.135l-9.159 11.573a.216.216 0 0 1 -.17.082h-9.064a.216.216 0 0 1 -.17-.082l-8.931-11.28a.217.217 0 0 1 .17-.352h17.882a.217.217 0 0 0 .217-.217v-11.281a.217.217 0 0 0 -.217-.217h-8.952a.215.215 0 0 1 -.17-.082l-8.931-11.28a.217.217 0 0 1 .17-.352h17.994a.217.217 0 0 1 .17.082l9.162 11.573a.217.217 0 0 1 .046.135z" transform="translate(-1057.233 -921.939)"/><path d="m1468.488 995.962c0 7.147-4.754 10.5-10.316 10.5h-15.041v-21.025h15.041c5.561 0 10.316 3.349 10.316 10.525zm-12.26 7.087c5.412 0 8.163-1.315 8.163-7.087 0-5.8-2.751-7.117-8.163-7.117h-9.27v14.2z" transform="translate(-1383.628 -978.632)"/><path d="m1712.643 988.786h-18.3v5.5h17.7v3.314h-17.7v5.532h18.3v3.319h-22.127v-21.014h22.127z" transform="translate(-1603.571 -978.632)"/><path d="m1946.348 1000.537c0 3.559-2.063 5.921-6.877 5.921h-18.479v-21.021h18.33c4.874 0 6.369 2.571 6.369 5.322a5.91 5.91 0 0 1 -2.332 4.844 5.278 5.278 0 0 1 2.989 4.934zm-21.529-11.811v5.532h13.157c2.153 0 3.648 0 3.648-2.751 0-2.781-1.5-2.781-3.648-2.781zm13.815 14.443c2.123 0 3.618 0 3.618-2.871s-1.5-2.871-3.618-2.871h-13.815v5.741z" transform="translate(-1808.48 -978.632)"/><path d="m2197.313 988.786h-18.3v5.5h17.7v3.314h-17.7v5.532h18.3v3.319h-22.127v-21.014h22.127z" transform="translate(-2034.477 -978.632)"/><path d="m2629.176 988.859h-10.943v17.611h-3.8v-17.611h-10.973v-3.408h25.713z" transform="translate(-2415.246 -978.645)"/><path d="m2850.193 994.859c0 2.6 2.332 4.126 10.076 4.126 6.16 0 8.433-1.136 8.433-3.229 0-2.242-1.466-2.6-9.329-3.08-8.821-.508-12.469-1.943-12.469-6.548 0-4.575 4.814-6.07 12.29-6.07 7.8 0 12.677 2.332 12.707 7.086h-4.1c0-2.721-2.572-3.8-9.12-3.8-6.13 0-7.684 1.017-7.684 2.96 0 2.033 1.554 2.572 8.521 3.05 8.163.568 13.276.957 13.276 6.189 0 5.471-5.562 6.728-12.5 6.728-8.581 0-13.934-1.794-14.232-7.415z" transform="translate(-2630.939 -973.851)"/><path d="m2407.455 988.494-10.208 17.964h-4.365l12.17-21.021h4.844l12.17 21.021h-4.336l-2.6-4.545-1.914-3.289" transform="translate(-2228.024 -978.632)"/><path d="m2494.458 1125.744 3.437-5.953a.089.089 0 0 0 -.077-.133h-6.874a.089.089 0 0 0 -.077.133l3.437 5.953a.089.089 0 0 0 .154 0z" transform="translate(-2315.13 -1097.964)"/></g></svg>